<svg width="513" height="341" viewBox="0 0 513 341" fill="none" xmlns="http://www.w3.org/2000/svg">
<path d="M195.141 175.86C198.056 175.86 200.419 173.497 200.419 170.583C200.419 167.668 198.056 165.305 195.141 165.305C192.226 165.305 189.863 167.668 189.863 170.583C189.863 173.497 192.226 175.86 195.141 175.86Z" stroke="#ED4629" stroke-width="3" stroke-miterlimit="10" stroke-linecap="round" stroke-linejoin="round"/>
<path d="M195.189 103.256V164.86" stroke="#ED4629" stroke-width="3" stroke-miterlimit="10" stroke-linecap="round" stroke-linejoin="round"/>
<path d="M345.481 149.732C348.396 149.732 350.759 147.369 350.759 144.454C350.759 141.539 348.396 139.176 345.481 139.176C342.566 139.176 340.203 141.539 340.203 144.454C340.203 147.369 342.566 149.732 345.481 149.732Z" stroke="#ED4629" stroke-width="3" stroke-miterlimit="10" stroke-linecap="round" stroke-linejoin="round"/>
<path d="M345.543 77.1387V138.743" stroke="#ED4629" stroke-width="3" stroke-miterlimit="10" stroke-linecap="round" stroke-linejoin="round"/>
<path d="M451.654 136.641C451.654 136.641 466.968 136.641 475.312 136.641L483.606 151.152L488.068 136.641H494.149V108.36H450.381V120.807" fill="#ED4629"/>
<path d="M418.483 149.298L427.704 163.809L431.251 149.298H464.241V121.018H406.617V149.298H418.483Z" fill="#ED4629"/>
<path d="M99.297 302.06L94.4023 337.781H104.303L108.716 303.184L99.297 302.06Z" fill="#ED4629"/>
<path d="M425.268 302.06L430.163 337.781H420.275L415.85 303.184L425.268 302.06Z" fill="#ED4629"/>
<path d="M496.347 224.499C503.727 195.818 486.459 166.586 457.779 159.207C429.099 151.827 399.866 169.095 392.487 197.775C385.107 226.455 402.375 255.687 431.055 263.067C459.736 270.447 488.968 253.179 496.347 224.499Z" fill="#ED4629"/>
<path d="M323.085 151.708L315.051 137.803L309.526 140.992V134.602H293.469V140.992L287.944 137.803L279.91 151.708L285.435 154.897L279.91 158.086L287.944 171.992L293.469 168.803V175.193H309.526V168.803L315.051 171.992L323.085 158.086L317.56 154.897L323.085 151.708ZM308.487 158.939C306.262 162.796 301.318 164.118 297.462 161.893C293.605 159.668 292.283 154.724 294.508 150.868C296.733 147.011 301.677 145.689 305.533 147.914C309.39 150.139 310.712 155.07 308.487 158.939Z" fill="#ED4629"/>
<path d="M275.803 145.379L273.22 131.078L266.249 132.338C265.643 131.201 264.951 130.138 264.184 129.125L268.226 123.303L256.286 115.009L252.244 120.831C251.033 120.46 249.785 120.188 248.511 120.015L247.251 113.044L232.95 115.627L234.211 122.599C233.073 123.204 232.01 123.896 230.997 124.663L225.175 120.621L216.881 132.561L222.703 136.603C222.332 137.814 222.06 139.063 221.887 140.336L214.916 141.596L217.499 155.897L224.471 154.637C225.076 155.774 225.768 156.837 226.535 157.838L222.493 163.66L234.433 171.953L238.475 166.132C239.686 166.502 240.935 166.774 242.208 166.947L243.468 173.919L257.769 171.335L256.509 164.364C257.646 163.759 258.709 163.066 259.722 162.3L265.544 166.342L273.838 154.402L268.016 150.36C268.387 149.149 268.659 147.9 268.832 146.627L275.803 145.379ZM247.77 156.8C240.428 158.122 233.37 153.227 232.047 145.885C230.725 138.543 235.62 131.486 242.962 130.163C250.304 128.84 257.361 133.735 258.684 141.077C260.007 148.419 255.112 155.477 247.77 156.8Z" fill="#ED4629"/>
<path d="M232.048 321.996H218.488V337.78H232.048V321.996Z" fill="#ED4629"/>
<path d="M325.702 317.373H312.143V337.792H325.702V317.373Z" fill="#ED4629"/>
<path d="M267.785 301.825C274.332 301.825 279.639 292.882 279.639 281.85C279.639 270.819 274.332 261.876 267.785 261.876C261.239 261.876 255.932 270.819 255.932 281.85C255.932 292.882 261.239 301.825 267.785 301.825Z" fill="#ED4629"/>
<path d="M170.125 301.825C176.672 301.825 181.979 292.882 181.979 281.85C181.979 270.819 176.672 261.876 170.125 261.876C163.579 261.876 158.271 270.819 158.271 281.85C158.271 292.882 163.579 301.825 170.125 301.825Z" fill="#ED4629"/>
<path d="M349.816 50.786C348.976 50.786 348.16 50.8725 347.369 51.0085C344.613 41.6764 335.973 34.8535 325.751 34.8535C324.305 34.8535 322.895 35.0018 321.523 35.2614C326.542 43.9137 329.434 53.9379 329.434 64.642C329.434 69.9446 328.717 75.0741 327.395 79.9688H349.829C357.888 79.9688 364.414 73.4426 364.414 65.3836C364.414 57.3246 357.875 50.786 349.816 50.786Z" fill="#ED4629"/>
<path d="M212.025 66.3594C208.132 63.1704 203.163 61.2422 197.737 61.2422C187.502 61.2422 178.875 68.0527 176.119 77.3972C175.315 77.2612 174.499 77.1747 173.671 77.1747C165.612 77.1747 159.086 83.701 159.086 91.7599C159.086 99.8189 165.612 106.345 173.671 106.345H223.965C225.634 106.345 227.229 106.11 228.761 105.678C218.762 95.4557 212.47 81.6368 212.025 66.3594Z" fill="#ED4629"/>
<path d="M270.697 118.261C300.31 118.261 324.317 94.2548 324.317 64.6417C324.317 35.0286 300.31 11.0225 270.697 11.0225C241.084 11.0225 217.078 35.0286 217.078 64.6417C217.078 94.2548 241.084 118.261 270.697 118.261Z" fill="#ED4629"/>
<path d="M130.041 214.929C130.361 185.319 106.617 161.056 77.0064 160.736C47.3963 160.416 23.1333 184.161 22.8135 213.771C22.4936 243.381 46.2381 267.644 75.8483 267.964C105.458 268.284 129.721 244.539 130.041 214.929Z" fill="#ED4629"/>
<path d="M483.103 191.582C480.211 178.53 467.084 176.169 463.883 175.786C451.646 165.28 436.295 171.855 432.698 173.648C415.381 168.345 407.73 180.47 406.111 183.536C401.859 185.736 399.115 188.838 397.965 192.781C395.975 199.604 399.498 206.674 400.586 208.603C400.586 213.93 402.205 218.034 405.406 220.802C410.251 225.005 417.136 224.646 419.275 224.412C422.402 225.944 425.393 226.711 428.223 226.711C429.954 226.711 431.635 226.426 433.242 225.845C438.075 224.115 440.979 220.221 442.302 217.984C463.92 226.142 475.082 215.327 479.865 208.009C483.178 202.966 484.327 197.132 483.103 191.582ZM476.676 205.933C474.587 209.122 471.695 212.286 467.752 214.437C466.986 213.25 465.824 211.705 464.427 210.753C463.562 210.16 462.363 210.383 461.769 211.248C461.176 212.125 461.386 213.312 462.264 213.905C462.944 214.375 463.611 215.191 464.167 215.969C459.1 217.626 452.635 217.65 444.428 214.696C445.516 213.398 447.345 211.557 450.175 209.703L450.188 209.69C453.945 207.231 459.446 204.746 467.282 203.485C468.32 203.312 469.037 202.336 468.864 201.285C468.691 200.247 467.702 199.53 466.677 199.703C459.693 200.828 454.366 202.88 450.373 205.105C449.137 201.125 445.701 196.415 438.124 196.415C438.087 196.415 438.038 196.415 438.001 196.415C436.95 196.428 436.097 197.281 436.097 198.344C436.109 199.394 436.962 200.247 438.013 200.247C438.038 200.247 438.087 200.247 438.124 200.247C444.823 200.247 446.542 205.031 446.974 207.255C441.832 210.926 439.879 214.449 439.743 214.709C439.731 214.733 439.731 214.758 439.719 214.783C439.706 214.808 439.694 214.832 439.682 214.857C439.657 214.906 437.259 220.382 431.969 222.273C428.879 223.373 425.356 223.015 421.499 221.235C421.524 218.788 422.241 212.644 428.532 210.407C429.534 210.049 430.053 208.961 429.694 207.96C429.336 206.959 428.248 206.44 427.247 206.798C419.868 209.418 417.804 216.217 417.655 220.703C415.295 220.79 410.931 220.543 407.903 217.91C405.715 216.007 404.566 213.102 404.442 209.27L413.478 204.734C414.417 204.264 414.8 203.115 414.33 202.163C413.848 201.224 412.699 200.84 411.759 201.31L403.317 205.55C402.168 203.152 400.351 198.319 401.649 193.857C402.366 191.409 403.985 189.382 406.445 187.788C407.767 190.445 411.253 194.462 420.375 197.651C420.585 197.726 420.795 197.763 421.005 197.763C421.796 197.763 422.538 197.268 422.81 196.477C423.156 195.476 422.637 194.388 421.635 194.042C411.871 190.631 409.918 186.465 409.535 185.229C410.795 182.77 417.074 172.535 432.228 177.529C432.599 177.677 440.065 180.705 441.14 185.711C437.963 185.823 433.922 186.49 428.903 188.307C427.914 188.665 427.395 189.765 427.754 190.754C428.038 191.533 428.767 192.015 429.546 192.015C429.769 192.015 429.979 191.978 430.201 191.904C442.401 187.466 447.839 190.519 447.988 190.606C448.865 191.162 450.039 190.915 450.608 190.037C451.189 189.147 450.929 187.961 450.052 187.392C449.916 187.306 448.297 186.305 445.034 185.872C445.034 185.823 445.034 185.773 445.034 185.724C444.44 180.965 440.398 177.665 437.271 175.798C442.351 173.833 452.116 171.522 460.484 177.998C459.223 180.013 457.406 183.709 457.975 187.553C458.395 190.383 459.99 192.744 462.709 194.574C463.043 194.796 463.401 194.895 463.772 194.895C464.39 194.895 464.996 194.598 465.366 194.042C465.96 193.165 465.725 191.978 464.847 191.385C463.043 190.173 462.029 188.727 461.769 186.997C461.337 184.104 463.043 181.064 463.97 179.655C467.208 180.087 477.096 182.25 479.346 192.423C480.359 196.947 479.408 201.743 476.676 205.933Z" fill="white"/>
<path d="M415.85 303.185L420.275 337.781" stroke="#333333" stroke-width="3" stroke-miterlimit="10" stroke-linecap="round" stroke-linejoin="round"/>
<path d="M493.682 337.781L481.779 280.677C481.779 280.677 508.515 247.192 500.728 206.959C492.941 166.726 453.511 153.81 425.713 158.939C398.977 163.871 382.884 178.407 375.616 195.798C368.348 213.189 374.912 235.512 374.912 235.512L363.936 258.922L374.912 262.433L377.594 306.918L437.356 301.059L449.061 288.649L451.36 262.247L458.913 263.731L471.854 244.214L465.29 229.628L453.078 232.36" stroke="#333333" stroke-width="3" stroke-miterlimit="10" stroke-linecap="round" stroke-linejoin="round"/>
<path d="M438.876 213.041C438.876 213.041 432.498 227.873 417.06 219.901C417.06 219.901 399.607 222.768 399.941 205.55C399.941 205.55 390.04 189.605 404.971 182.424C404.971 182.424 411.51 166.949 430.31 173.179C430.31 173.179 447.429 163.29 460.506 175.094C460.506 175.094 475.66 175.898 478.664 189.469C479.801 194.611 478.627 199.988 475.71 204.45C470.901 211.817 460.037 221.755 438.876 213.041Z" stroke="#333333" stroke-width="3" stroke-miterlimit="10" stroke-linecap="round" stroke-linejoin="round"/>
<path d="M430.322 173.166C430.322 173.166 439.766 176.701 440.606 183.4" stroke="#333333" stroke-width="3" stroke-miterlimit="10" stroke-linecap="round" stroke-linejoin="round"/>
<path d="M438.873 213.041C438.873 213.041 444.621 202.226 464.422 199.037" stroke="#333333" stroke-width="3" stroke-miterlimit="10" stroke-linecap="round" stroke-linejoin="round"/>
<path d="M404.984 182.412C404.984 182.412 405.195 188.654 418.457 193.289" stroke="#333333" stroke-width="3" stroke-miterlimit="10" stroke-linecap="round" stroke-linejoin="round"/>
<path d="M399.953 205.537L410.064 200.47" stroke="#333333" stroke-width="3" stroke-miterlimit="10" stroke-linecap="round" stroke-linejoin="round"/>
<path d="M460.52 175.081C460.52 175.081 452.684 184.673 461.237 190.42" stroke="#333333" stroke-width="3" stroke-miterlimit="10" stroke-linecap="round" stroke-linejoin="round"/>
<path d="M417.058 219.901C417.058 219.901 415.933 209.37 425.327 206.045" stroke="#333333" stroke-width="3" stroke-miterlimit="10" stroke-linecap="round" stroke-linejoin="round"/>
<path d="M446.477 186.429C446.477 186.429 440.606 182.598 427.01 187.542" stroke="#333333" stroke-width="3" stroke-miterlimit="10" stroke-linecap="round" stroke-linejoin="round"/>
<path d="M446.478 205.613C446.478 205.613 445.934 195.7 435.465 195.774" stroke="#333333" stroke-width="3" stroke-miterlimit="10" stroke-linecap="round" stroke-linejoin="round"/>
<path d="M464.423 214.351C464.423 214.351 462.804 211.15 460.789 209.766" stroke="#333333" stroke-width="3" stroke-miterlimit="10" stroke-linecap="round" stroke-linejoin="round"/>
<path d="M407.223 227.502C407.013 226.637 406.246 226.031 405.357 226.031H388.089C387.483 226.031 386.915 226.316 386.556 226.81C386.198 227.304 386.087 227.922 386.26 228.503L388.571 236.043C388.732 236.587 389.127 237.02 389.646 237.242C389.881 237.341 390.141 237.39 390.4 237.39C390.697 237.39 390.994 237.316 391.266 237.18L406.222 229.64C407.025 229.257 407.433 228.367 407.223 227.502Z" fill="#333333"/>
<path d="M510.999 337.782H386.184" stroke="#333333" stroke-width="3" stroke-miterlimit="10" stroke-linecap="round" stroke-linejoin="round"/>
<path d="M108.719 303.185L104.307 337.781" stroke="#333333" stroke-width="3" stroke-miterlimit="10" stroke-linecap="round" stroke-linejoin="round"/>
<path d="M150.645 200.829C151.25 203.079 151.671 205.365 151.943 207.64C153.661 221.891 149.643 235.512 149.643 235.512L160.619 258.923L149.643 262.433L146.961 306.918L87.1989 301.059L75.4937 288.649L73.1947 262.248L65.6425 263.731L52.7012 244.214L59.2645 229.629L71.4766 232.36" stroke="#333333" stroke-width="3" stroke-miterlimit="10" stroke-linecap="round" stroke-linejoin="round"/>
<path d="M136.656 177.505C138.498 179.334 140.179 181.25 141.699 183.252" stroke="#333333" stroke-width="3" stroke-miterlimit="10" stroke-linecap="round" stroke-linejoin="round"/>
<path d="M92.3184 158.099C94.5556 158.272 96.7434 158.556 98.857 158.951C103.949 159.891 108.659 161.176 112.997 162.771" stroke="#333333" stroke-width="3" stroke-miterlimit="10" stroke-linecap="round" stroke-linejoin="round"/>
<path d="M63.7773 161.671C68.7956 159.965 73.9499 158.865 79.0547 158.309" stroke="#333333" stroke-width="3" stroke-miterlimit="10" stroke-linecap="round" stroke-linejoin="round"/>
<path d="M28.5996 192.176C32.1841 184.55 37.1406 178.308 42.95 173.352" stroke="#333333" stroke-width="3" stroke-miterlimit="10" stroke-linecap="round" stroke-linejoin="round"/>
<path d="M30.8831 337.781L42.7861 280.676C42.7861 280.676 17.1013 248.502 23.4175 209.345" stroke="#333333" stroke-width="3" stroke-miterlimit="10" stroke-linecap="round" stroke-linejoin="round"/>
<path d="M117.349 227.502C117.559 226.637 118.325 226.031 119.215 226.031H136.482C137.088 226.031 137.657 226.316 138.028 226.81C138.386 227.304 138.497 227.922 138.324 228.503L136.013 236.043C135.852 236.587 135.457 237.02 134.937 237.242C134.703 237.341 134.443 237.39 134.183 237.39C133.887 237.39 133.59 237.316 133.318 237.18L118.362 229.64C117.559 229.257 117.139 228.367 117.349 227.502Z" fill="#333333"/>
<path d="M13.5684 337.781H138.383" stroke="#333333" stroke-width="3" stroke-miterlimit="10" stroke-linecap="round" stroke-linejoin="round"/>
<path d="M100.774 211.15H74.2977C71.1335 211.15 68.5625 208.579 68.5625 205.415V178.927C68.5625 175.762 71.1335 173.191 74.2977 173.191H100.774C103.938 173.191 106.509 175.762 106.509 178.927V205.415C106.521 208.579 103.95 211.15 100.774 211.15Z" stroke="#333333" stroke-width="3" stroke-miterlimit="10" stroke-linecap="round" stroke-linejoin="round"/>
<path d="M106.518 202.535H122.166L127.839 207.64" stroke="#333333" stroke-width="3" stroke-miterlimit="10" stroke-linecap="round" stroke-linejoin="round"/>
<path d="M106.518 192.177H129.174" stroke="#333333" stroke-width="3" stroke-miterlimit="10" stroke-linecap="round" stroke-linejoin="round"/>
<path d="M140.658 192.177H160.633" stroke="#333333" stroke-width="3" stroke-miterlimit="10" stroke-linecap="round" stroke-linejoin="round"/>
<path d="M108.841 245.326C108.841 248.515 106.257 251.11 103.056 251.11C99.8548 251.11 97.2715 248.527 97.2715 245.326C97.2715 242.137 99.8548 239.541 103.056 239.541C106.257 239.541 108.841 242.137 108.841 245.326Z" stroke="#333333" stroke-width="3" stroke-miterlimit="10" stroke-linecap="round" stroke-linejoin="round"/>
<path d="M32.3798 167.443C32.3798 170.632 29.7965 173.228 26.5952 173.228C23.4062 173.228 20.8105 170.644 20.8105 167.443C20.8105 164.254 23.3939 161.658 26.5952 161.658C29.7842 161.671 32.3798 164.254 32.3798 167.443Z" stroke="#333333" stroke-width="3" stroke-miterlimit="10" stroke-linecap="round" stroke-linejoin="round"/>
<path d="M90.624 134.245C90.624 137.434 88.0407 140.029 84.8393 140.029C81.638 140.029 79.0547 137.446 79.0547 134.245C79.0547 131.056 81.638 128.46 84.8393 128.46C88.0407 128.46 90.624 131.043 90.624 134.245Z" stroke="#333333" stroke-width="3" stroke-miterlimit="10" stroke-linecap="round" stroke-linejoin="round"/>
<path d="M13.5693 202.102C13.5693 205.291 10.986 207.887 7.78465 207.887C4.59568 207.887 2 205.303 2 202.102C2 198.913 4.58332 196.317 7.78465 196.317C10.986 196.33 13.5693 198.913 13.5693 202.102Z" stroke="#333333" stroke-width="3" stroke-miterlimit="10" stroke-linecap="round" stroke-linejoin="round"/>
<path d="M106.518 183.4H115.775" stroke="#333333" stroke-width="3" stroke-miterlimit="10" stroke-linecap="round" stroke-linejoin="round"/>
<path d="M106.518 175.738L115.775 170.954H144.81" stroke="#333333" stroke-width="3" stroke-miterlimit="10" stroke-linecap="round" stroke-linejoin="round"/>
<path d="M71.0679 174.279L68.5588 167.443H33.7891" stroke="#333333" stroke-width="3" stroke-miterlimit="10" stroke-linecap="round" stroke-linejoin="round"/>
<path d="M100.588 211.149V220.395" stroke="#333333" stroke-width="3" stroke-miterlimit="10" stroke-linecap="round" stroke-linejoin="round"/>
<path d="M91.541 211.149V235.709L97.2886 241.778" stroke="#333333" stroke-width="3" stroke-miterlimit="10" stroke-linecap="round" stroke-linejoin="round"/>
<path d="M68.5588 183.253H52.7005L47.5215 180.373" stroke="#333333" stroke-width="3" stroke-miterlimit="10" stroke-linecap="round" stroke-linejoin="round"/>
<path d="M68.5586 192.177H43.3682L39.5488 200.829" stroke="#333333" stroke-width="3" stroke-miterlimit="10" stroke-linecap="round" stroke-linejoin="round"/>
<path d="M32.3808 200.829H13.5684" stroke="#333333" stroke-width="3" stroke-miterlimit="10" stroke-linecap="round" stroke-linejoin="round"/>
<path d="M67.707 202.535H54.0488" stroke="#333333" stroke-width="3" stroke-miterlimit="10" stroke-linecap="round" stroke-linejoin="round"/>
<path d="M71.0696 211.149L65.0625 217.206H43.6914" stroke="#333333" stroke-width="3" stroke-miterlimit="10" stroke-linecap="round" stroke-linejoin="round"/>
<path d="M80.7012 211.149V226.464" stroke="#333333" stroke-width="3" stroke-miterlimit="10" stroke-linecap="round" stroke-linejoin="round"/>
<path d="M76.4473 166.812V173.19" stroke="#333333" stroke-width="3" stroke-miterlimit="10" stroke-linecap="round" stroke-linejoin="round"/>
<path d="M84.8379 173.191V140.016" stroke="#333333" stroke-width="3" stroke-miterlimit="10" stroke-linecap="round" stroke-linejoin="round"/>
<path d="M96.1133 172.338V168.296" stroke="#333333" stroke-width="3" stroke-miterlimit="10" stroke-linecap="round" stroke-linejoin="round"/>
<path d="M87.3373 195.847C89.6583 195.847 91.5398 193.966 91.5398 191.645C91.5398 189.324 89.6583 187.442 87.3373 187.442C85.0163 187.442 83.1348 189.324 83.1348 191.645C83.1348 193.966 85.0163 195.847 87.3373 195.847Z" fill="#333333"/>
<path d="M361.043 116.369C363.958 116.369 366.321 114.006 366.321 111.091C366.321 108.176 363.958 105.813 361.043 105.813C358.129 105.813 355.766 108.176 355.766 111.091C355.766 114.006 358.129 116.369 361.043 116.369Z" stroke="#333333" stroke-width="3" stroke-miterlimit="10" stroke-linecap="round" stroke-linejoin="round"/>
<path d="M220.262 118.311C216.418 112.984 213.439 107.001 211.523 100.562" stroke="#333333" stroke-width="3" stroke-miterlimit="10" stroke-linecap="round" stroke-linejoin="round"/>
<path d="M279.38 142.154C275.907 142.785 272.322 143.118 268.676 143.118" stroke="#333333" stroke-width="3" stroke-miterlimit="10" stroke-linecap="round" stroke-linejoin="round"/>
<path d="M327.49 73.5801C328.034 76.8061 328.306 80.1063 328.306 83.4807C328.306 102.738 319.171 119.87 304.994 130.771" stroke="#333333" stroke-width="3" stroke-miterlimit="10" stroke-linecap="round" stroke-linejoin="round"/>
<path d="M211.674 65.9405C219.164 41.5659 241.858 23.8535 268.68 23.8535C283.797 23.8535 297.603 29.4775 308.122 38.7601" stroke="#333333" stroke-width="3" stroke-miterlimit="10" stroke-linecap="round" stroke-linejoin="round"/>
<path d="M215.326 57.3754C231.778 54.137 249.799 52.3447 268.673 52.3447C272.456 52.3447 276.201 52.4189 279.897 52.5549" stroke="#333333" stroke-width="3" stroke-miterlimit="10" stroke-linecap="round" stroke-linejoin="round"/>
<path d="M221.941 110.809C219.704 110.426 217.504 110.03 215.328 109.598" stroke="#333333" stroke-width="3" stroke-miterlimit="10" stroke-linecap="round" stroke-linejoin="round"/>
<path d="M322.021 109.598C305.557 112.836 287.548 114.628 268.674 114.628" stroke="#333333" stroke-width="3" stroke-miterlimit="10" stroke-linecap="round" stroke-linejoin="round"/>
<path d="M268.676 23.8535V121.191" stroke="#333333" stroke-width="3" stroke-miterlimit="10" stroke-linecap="round" stroke-linejoin="round"/>
<path d="M241.941 83.4805H328.303" stroke="#333333" stroke-width="3" stroke-miterlimit="10" stroke-linecap="round" stroke-linejoin="round"/>
<path d="M304.694 78.7705C304.743 80.3279 304.781 81.8977 304.781 83.4798C304.781 98.8684 302.197 113.108 297.834 124.64" stroke="#333333" stroke-width="3" stroke-miterlimit="10" stroke-linecap="round" stroke-linejoin="round"/>
<path d="M290.566 27.9941C291.938 30.0089 293.224 32.2214 294.435 34.5946" stroke="#333333" stroke-width="3" stroke-miterlimit="10" stroke-linecap="round" stroke-linejoin="round"/>
<path d="M233.906 64.6429C236.045 49.8723 240.643 37.067 246.786 28.0068" stroke="#333333" stroke-width="3" stroke-miterlimit="10" stroke-linecap="round" stroke-linejoin="round"/>
<path d="M234.391 105.371C234.082 103.591 233.823 101.786 233.588 99.957" stroke="#333333" stroke-width="3" stroke-miterlimit="10" stroke-linecap="round" stroke-linejoin="round"/>
<path d="M301.703 144.081C305.56 146.306 306.882 151.25 304.657 155.107C302.432 158.963 297.488 160.286 293.632 158.061C289.775 155.836 288.453 150.892 290.678 147.035C292.903 143.179 297.847 141.856 301.703 144.081Z" stroke="#333333" stroke-width="3" stroke-miterlimit="10" stroke-linecap="round" stroke-linejoin="round"/>
<path d="M319.255 147.877L311.233 133.971L305.696 137.16V130.782H289.639V137.16L284.102 133.971L276.08 147.877L281.605 151.078L276.08 154.267L284.102 168.172L289.639 164.983V171.374H305.696V164.983L311.233 168.172L319.255 154.267L313.73 151.078L319.255 147.877Z" stroke="#333333" stroke-width="3" stroke-miterlimit="10" stroke-linecap="round" stroke-linejoin="round"/>
<path d="M270.703 142.82L268.12 128.519L261.148 129.78C260.543 128.643 259.85 127.58 259.084 126.579L263.126 120.757L251.186 112.463L247.144 118.285C245.933 117.914 244.684 117.642 243.411 117.469L242.15 110.498L227.85 113.081L229.11 120.053C227.973 120.658 226.91 121.35 225.909 122.117L220.087 118.075L211.793 130.015L217.615 134.057C217.244 135.268 216.972 136.517 216.799 137.79L209.828 139.05L212.411 153.351L219.383 152.091C219.988 153.228 220.681 154.291 221.447 155.292L217.405 161.114L229.345 169.408L233.387 163.586C234.598 163.957 235.847 164.229 237.12 164.402L238.381 171.373L252.681 168.79L251.421 161.818C252.558 161.213 253.621 160.52 254.634 159.754L260.456 163.796L268.75 151.856L262.928 147.814C263.299 146.603 263.571 145.354 263.744 144.081L270.703 142.82ZM242.67 154.254C235.328 155.576 228.27 150.682 226.947 143.34C225.625 135.997 230.519 128.94 237.861 127.617C245.203 126.295 252.261 131.189 253.584 138.531C254.906 145.873 250.012 152.919 242.67 154.254Z" stroke="#333333" stroke-width="3" stroke-miterlimit="10" stroke-linecap="round" stroke-linejoin="round"/>
<path d="M354.558 44.4081C353.717 44.4081 352.901 44.4946 352.11 44.6306C349.354 35.2985 340.714 28.4756 330.492 28.4756C322.112 28.4756 314.807 33.0489 310.913 39.8348C308.861 38.9943 306.624 38.5246 304.263 38.5246C294.585 38.5246 286.736 46.3734 286.736 56.0515C286.736 65.7297 294.585 73.5785 304.263 73.5785H354.558C362.617 73.5785 369.143 67.0523 369.143 58.9933C369.143 50.9344 362.617 44.4081 354.558 44.4081Z" stroke="#333333" stroke-width="3" stroke-miterlimit="10" stroke-linecap="round" stroke-linejoin="round"/>
<path d="M167.284 70.785C168.125 70.785 168.941 70.8716 169.732 71.0075C172.488 61.6755 181.128 54.8525 191.35 54.8525C199.73 54.8525 207.035 59.4259 210.929 66.2117C212.981 65.3712 215.218 64.9015 217.579 64.9015C227.257 64.9015 235.106 72.7503 235.106 82.4285C235.106 85.7534 234.179 88.8559 232.572 91.5134C229.494 96.5811 223.932 99.9555 217.579 99.9555H167.284C159.225 99.9555 152.699 93.4292 152.699 85.3703C152.699 77.3113 159.225 70.785 167.284 70.785Z" stroke="#333333" stroke-width="3" stroke-miterlimit="10" stroke-linecap="round" stroke-linejoin="round"/>
<path d="M337.921 73.5791V114.628L332.828 124.652" stroke="#333333" stroke-width="3" stroke-miterlimit="10" stroke-linecap="round" stroke-linejoin="round" stroke-dasharray="6 6"/>
<path d="M360.986 73.5791V105.37" stroke="#333333" stroke-width="3" stroke-miterlimit="10" stroke-linecap="round" stroke-linejoin="round"/>
<path d="M174.354 142.586C177.269 142.586 179.632 140.223 179.632 137.308C179.632 134.393 177.269 132.03 174.354 132.03C171.439 132.03 169.076 134.393 169.076 137.308C169.076 140.223 171.439 142.586 174.354 142.586Z" stroke="#333333" stroke-width="3" stroke-miterlimit="10" stroke-linecap="round" stroke-linejoin="round"/>
<path d="M174.305 99.8076V131.598" stroke="#333333" stroke-width="3" stroke-miterlimit="10" stroke-linecap="round" stroke-linejoin="round"/>
<path d="M350.393 73.5791V89.4745" stroke="#333333" stroke-width="3" stroke-miterlimit="10" stroke-linecap="round" stroke-linejoin="round"/>
<path d="M188.023 99.9561V134.244L201.422 146.394" stroke="#333333" stroke-width="3" stroke-miterlimit="10" stroke-linecap="round" stroke-linejoin="round" stroke-dasharray="6 6"/>
<path d="M201.426 99.9561V114.628" stroke="#333333" stroke-width="3" stroke-miterlimit="10" stroke-linecap="round" stroke-linejoin="round"/>
<path d="M242.813 337.781H197.277V226.464L242.813 214.178V337.781Z" stroke="#333333" stroke-width="3" stroke-miterlimit="10" stroke-linecap="round" stroke-linejoin="round"/>
<path d="M197.277 234.103L242.813 221.816" stroke="#333333" stroke-width="3" stroke-miterlimit="10" stroke-linecap="round" stroke-linejoin="round"/>
<path d="M204.346 242.729H212.368" stroke="#333333" stroke-width="3" stroke-miterlimit="10" stroke-linecap="round" stroke-linejoin="round"/>
<path d="M226.199 259.479H234.221" stroke="#333333" stroke-width="3" stroke-miterlimit="10" stroke-linecap="round" stroke-linejoin="round"/>
<path d="M204.346 273.347H212.368" stroke="#333333" stroke-width="3" stroke-miterlimit="10" stroke-linecap="round" stroke-linejoin="round"/>
<path d="M226.199 284.83H234.221" stroke="#333333" stroke-width="3" stroke-miterlimit="10" stroke-linecap="round" stroke-linejoin="round"/>
<path d="M204.346 313.061H212.368" stroke="#333333" stroke-width="3" stroke-miterlimit="10" stroke-linecap="round" stroke-linejoin="round"/>
<path d="M226.199 302.06H234.221" stroke="#333333" stroke-width="3" stroke-miterlimit="10" stroke-linecap="round" stroke-linejoin="round"/>
<path d="M226.944 321.998H213.385V337.782H226.944V321.998Z" stroke="#333333" stroke-width="3" stroke-miterlimit="10" stroke-linecap="round" stroke-linejoin="round"/>
<path d="M320.598 317.375H307.039V337.794H320.598V317.375Z" stroke="#333333" stroke-width="3" stroke-miterlimit="10" stroke-linecap="round" stroke-linejoin="round"/>
<path d="M338.963 308.28V301.507H318.544V308.28H338.963Z" stroke="#333333" stroke-width="3" stroke-miterlimit="10" stroke-linecap="round" stroke-linejoin="round"/>
<path d="M338.966 337.782H288.672V294.188H338.966V321.998V337.782Z" stroke="#333333" stroke-width="3" stroke-miterlimit="10" stroke-linecap="round" stroke-linejoin="round"/>
<path d="M355.863 294.186H298.561V269.095L355.863 294.186Z" stroke="#333333" stroke-width="3" stroke-miterlimit="10" stroke-linecap="round" stroke-linejoin="round"/>
<path d="M298.559 276.857L280.377 294.187H298.559" stroke="#333333" stroke-width="3" stroke-miterlimit="10" stroke-linecap="round" stroke-linejoin="round"/>
<path d="M176.808 320.488C171.938 320.488 167.785 323.529 166.116 327.806C165.424 327.608 164.707 327.497 163.953 327.497C159.553 327.497 155.98 331.069 155.98 335.469C155.98 336.569 156.203 337.607 156.598 338.559H167.414H171.295H186.189C187.499 336.693 188.29 334.418 188.29 331.959C188.29 325.63 183.149 320.488 176.808 320.488Z" stroke="#333333" stroke-width="3" stroke-miterlimit="10" stroke-linecap="round" stroke-linejoin="round"/>
<path d="M175.211 320.6V286.955" stroke="#333333" stroke-width="3" stroke-miterlimit="10" stroke-linecap="round" stroke-linejoin="round"/>
<path d="M175.211 306.929C181.758 306.929 187.065 297.986 187.065 286.955C187.065 275.923 181.758 266.98 175.211 266.98C168.664 266.98 163.357 275.923 163.357 286.955C163.357 297.986 168.664 306.929 175.211 306.929Z" stroke="#333333" stroke-width="3" stroke-miterlimit="10" stroke-linecap="round" stroke-linejoin="round"/>
<path d="M175.216 296.954L169.48 290.996" stroke="#333333" stroke-width="3" stroke-miterlimit="10" stroke-linecap="round" stroke-linejoin="round"/>
<path d="M262.678 337.781V286.955" stroke="#333333" stroke-width="3" stroke-miterlimit="10" stroke-linecap="round" stroke-linejoin="round"/>
<path d="M262.678 306.929C269.224 306.929 274.531 297.986 274.531 286.955C274.531 275.923 269.224 266.98 262.678 266.98C256.131 266.98 250.824 275.923 250.824 286.955C250.824 297.986 256.131 306.929 262.678 306.929Z" stroke="#333333" stroke-width="3" stroke-miterlimit="10" stroke-linecap="round" stroke-linejoin="round"/>
<path d="M262.678 296.956L268.425 290.998" stroke="#333333" stroke-width="3" stroke-miterlimit="10" stroke-linecap="round" stroke-linejoin="round"/>
<path d="M337.506 337.782H351.127H357.097H367.381C367.949 336.62 368.283 335.322 368.283 333.95C368.283 329.08 364.241 325.125 359.248 325.125C358.704 325.125 358.16 325.174 357.641 325.273C355.577 321.775 351.72 319.427 347.295 319.427" stroke="#333333" stroke-width="3" stroke-miterlimit="10" stroke-linecap="round" stroke-linejoin="round"/>
<path d="M413.376 144.194L422.609 158.705L426.144 144.194H459.134V115.913H401.51V144.194H413.376Z" stroke="#333333" stroke-width="3" stroke-miterlimit="10" stroke-linecap="round" stroke-linejoin="round"/>
<path d="M459.138 131.536C459.138 131.536 459.138 131.536 467.482 131.536L475.775 146.047L480.238 131.536H486.319V103.256H442.551V115.703" stroke="#333333" stroke-width="3" stroke-miterlimit="10" stroke-linecap="round" stroke-linejoin="round"/>
<path d="M294.076 183.253V211.15" stroke="#333333" stroke-width="3" stroke-miterlimit="10" stroke-linecap="round" stroke-linejoin="round"/>
<path d="M294.076 227.96V253.88" stroke="#333333" stroke-width="3" stroke-miterlimit="10" stroke-linecap="round" stroke-linejoin="round"/>
<path d="M269.428 178.283V191.645" stroke="#333333" stroke-width="3" stroke-miterlimit="10" stroke-linecap="round" stroke-linejoin="round"/>
<path d="M269.428 205.094V237.404" stroke="#333333" stroke-width="3" stroke-miterlimit="10" stroke-linecap="round" stroke-linejoin="round"/>
<path d="M269.428 251.11V255.807" stroke="#333333" stroke-width="3" stroke-miterlimit="10" stroke-linecap="round" stroke-linejoin="round"/>
<path d="M222.459 175.738V180.373" stroke="#333333" stroke-width="3" stroke-miterlimit="10" stroke-linecap="round" stroke-linejoin="round"/>
<path d="M222.459 192.177V209.345" stroke="#333333" stroke-width="3" stroke-miterlimit="10" stroke-linecap="round" stroke-linejoin="round"/>
<path d="M247.203 178.062V197.949" stroke="#333333" stroke-width="3" stroke-miterlimit="10" stroke-linecap="round" stroke-linejoin="round"/>
<path d="M315.738 181.819V191.646" stroke="#333333" stroke-width="3" stroke-miterlimit="10" stroke-linecap="round" stroke-linejoin="round"/>
<path d="M315.738 203.005V227.96" stroke="#333333" stroke-width="3" stroke-miterlimit="10" stroke-linecap="round" stroke-linejoin="round"/>
<path d="M412.996 124.652H417.705" stroke="#333333" stroke-width="3" stroke-miterlimit="10" stroke-linecap="round" stroke-linejoin="round"/>
<path d="M431.6 124.652H446.568" stroke="#333333" stroke-width="3" stroke-miterlimit="10" stroke-linecap="round" stroke-linejoin="round"/>
<path d="M412.996 133.576H431.598" stroke="#333333" stroke-width="3" stroke-miterlimit="10" stroke-linecap="round" stroke-linejoin="round"/>
<path d="M442.242 132.786H446.568" stroke="#333333" stroke-width="3" stroke-miterlimit="10" stroke-linecap="round" stroke-linejoin="round"/>
<path d="M475.91 113.441H470.805" stroke="#333333" stroke-width="3" stroke-miterlimit="10" stroke-linecap="round" stroke-linejoin="round"/>
<path d="M475.907 123.009H467.836" stroke="#333333" stroke-width="3" stroke-miterlimit="10" stroke-linecap="round" stroke-linejoin="round"/>
<path d="M202.558 34.5934C202.558 37.5104 200.197 39.8712 197.28 39.8712C194.363 39.8712 192.002 37.5104 192.002 34.5934C192.002 31.6763 194.363 29.3155 197.28 29.3155C200.197 29.3031 202.558 31.6763 202.558 34.5934Z" stroke="#333333" stroke-width="3" stroke-miterlimit="10" stroke-linecap="round" stroke-linejoin="round"/>
<path d="M316.645 14.212C319.56 14.212 321.923 11.849 321.923 8.93412C321.923 6.01924 319.56 3.65625 316.645 3.65625C313.73 3.65625 311.367 6.01924 311.367 8.93412C311.367 11.849 313.73 14.212 316.645 14.212Z" stroke="#333333" stroke-width="3" stroke-miterlimit="10" stroke-linecap="round" stroke-linejoin="round"/>
<path d="M270.703 142.822L268.12 128.521L261.148 129.782C260.543 128.645 259.85 127.582 259.084 126.581L263.126 120.759L251.186 112.465L247.144 118.287C245.933 117.916 244.684 117.644 243.411 117.471L242.15 110.5L227.85 113.083L229.11 120.055C227.973 120.66 226.91 121.352 225.909 122.119L220.087 118.077L211.793 130.017L217.615 134.059C217.244 135.27 216.972 136.519 216.799 137.792L209.828 139.052L212.411 153.353L219.383 152.093C219.988 153.23 220.681 154.293 221.447 155.294L217.405 161.116L229.345 169.409L233.387 163.588C234.598 163.959 235.847 164.23 237.12 164.404L238.381 171.375L252.681 168.791L251.421 161.82C252.558 161.215 253.621 160.522 254.634 159.756L260.456 163.798L268.75 151.858L262.928 147.816C263.299 146.605 263.571 145.356 263.744 144.083L270.703 142.822ZM242.67 154.256C235.328 155.578 228.27 150.684 226.947 143.341C225.625 135.999 230.519 128.942 237.861 127.619C245.203 126.297 252.261 131.191 253.584 138.533C254.906 145.875 250.012 152.921 242.67 154.256Z" stroke="#333333" stroke-width="3" stroke-miterlimit="10" stroke-linecap="round" stroke-linejoin="round"/>
<path d="M147.469 118.311H156.034" stroke="#333333" stroke-width="3" stroke-miterlimit="10" stroke-linecap="round" stroke-linejoin="round"/>
<path d="M151.756 122.588V114.034" stroke="#333333" stroke-width="3" stroke-miterlimit="10" stroke-linecap="round" stroke-linejoin="round"/>
<path d="M248.02 6.27637H256.585" stroke="#333333" stroke-width="3" stroke-miterlimit="10" stroke-linecap="round" stroke-linejoin="round"/>
<path d="M252.297 10.5657V2" stroke="#333333" stroke-width="3" stroke-miterlimit="10" stroke-linecap="round" stroke-linejoin="round"/>
<path d="M352.824 215.772H361.39" stroke="#ED4629" stroke-width="3" stroke-miterlimit="10" stroke-linecap="round" stroke-linejoin="round"/>
<path d="M357.102 220.062V211.496" stroke="#ED4629" stroke-width="3" stroke-miterlimit="10" stroke-linecap="round" stroke-linejoin="round"/>
<path d="M171.25 214.178H179.816" stroke="#ED4629" stroke-width="3" stroke-miterlimit="10" stroke-linecap="round" stroke-linejoin="round"/>
<path d="M175.537 218.467V209.901" stroke="#ED4629" stroke-width="3" stroke-miterlimit="10" stroke-linecap="round" stroke-linejoin="round"/>
<path d="M35.9766 146.826H44.5299" stroke="#ED4629" stroke-width="3" stroke-miterlimit="10" stroke-linecap="round" stroke-linejoin="round"/>
<path d="M40.2539 151.103V142.55" stroke="#ED4629" stroke-width="3" stroke-miterlimit="10" stroke-linecap="round" stroke-linejoin="round"/>
</svg>
