<svg xmlns="http://www.w3.org/2000/svg" width="736" height="401" viewBox="0 0 736 401" fill="none"><g clip-path="url(#clip0)"><path opacity="0.1" d="M521.645 195.857C538.998 203.869 554.997 214.876 573.087 221.041C595.102 228.544 618.874 228.466 642.136 228.296L736 227.638C716.989 261.748 683.403 287.429 645.481 296.85C630.601 300.552 614.708 302.003 601.585 309.952C585.232 319.861 575.539 338.491 558.916 347.927C540.592 358.318 517.819 355.515 497.398 360.668C470.777 367.343 448.507 387.417 421.355 391.366C395.095 395.182 369.495 383.332 344.043 375.851C253.135 349.123 154.92 377.67 61.0853 364.455C57.4787 363.945 53.6384 363.258 51.0308 360.724C47.6793 357.475 47.403 352.23 48.069 347.58C51.4134 324.406 72.2807 307.375 94.1611 298.973C140.778 281.079 193.148 292.32 242.669 285.878C276.68 281.447 309.033 268.692 340.947 256.043C374.363 242.8 408.303 229.804 439.969 212.667C472.159 195.219 482.596 177.849 521.645 195.857Z" fill="#1089FE"></path><path d="M227.803 318.878C227.803 318.878 226.386 340.113 229.221 343.652C229.221 343.652 166.867 354.977 159.073 351.438C151.278 347.899 154.821 342.236 159.073 340.113C163.324 337.989 184.581 330.203 187.415 315.339C187.415 315.339 178.204 311.092 207.964 316.754C237.723 322.417 227.803 318.878 227.803 318.878Z" fill="#23384D"></path><path opacity="0.05" d="M227.803 318.878C227.803 318.878 226.386 340.113 229.221 343.652C229.221 343.652 166.867 354.977 159.073 351.438C151.278 347.899 154.821 342.236 159.073 340.113C163.324 337.989 184.581 330.203 187.415 315.339C187.415 315.339 178.204 311.092 207.964 316.754C237.723 322.417 227.803 318.878 227.803 318.878Z" fill="#23384D"></path><path d="M470.975 23.1742L471.244 23.3016C484.107 29.3622 495.295 38.4662 503.838 49.824C508.671 56.1945 514.608 62.2677 520.256 63.2728C532.797 65.4812 625.017 161.293 602.881 250.466C580.746 339.638 451.61 343.319 451.61 343.319C451.61 343.319 424.146 347.969 408.387 357.27C404.708 359.444 400.595 360.782 396.34 361.191C392.084 361.599 387.792 361.068 383.765 359.634C365.002 352.967 334.165 343.298 320.263 346.27C299.609 350.694 122.574 276.995 122.574 276.995C122.574 276.995 196.35 206.212 304.795 207.72C304.795 207.72 475.949 88.33 470.047 38.9517L470.975 23.1742Z" fill="#1089FE"></path><path opacity="0.1" d="M470.975 23.1742L471.244 23.3016C484.107 29.3622 495.295 38.4662 503.838 49.824C508.671 56.1945 514.608 62.2677 520.256 63.2728C532.797 65.4812 625.017 161.293 602.881 250.466C580.746 339.638 451.61 343.319 451.61 343.319C451.61 343.319 424.146 347.969 408.387 357.27C404.708 359.444 400.595 360.782 396.34 361.191C392.084 361.599 387.792 361.068 383.765 359.634C365.002 352.967 334.165 343.298 320.263 346.27C299.609 350.694 122.574 276.995 122.574 276.995C122.574 276.995 196.35 206.212 304.795 207.72C304.795 207.72 475.949 88.33 470.047 38.9517L470.975 23.1742Z" fill="black"></path><path d="M470.842 23.0045L488.556 39.9924C488.556 39.9924 502.019 66.1821 514.064 68.3056C526.11 70.4291 614.68 162.447 593.423 248.094C572.167 333.742 448.168 337.281 448.168 337.281C448.168 337.281 422.362 341.648 407.177 350.39C403.496 352.543 399.39 353.873 395.144 354.287C390.898 354.702 386.612 354.191 382.583 352.79C364.522 346.419 335.265 337.281 322.05 340.112C302.211 344.359 132.155 273.576 132.155 273.576C132.155 273.576 203.012 205.625 307.171 207.04C307.171 207.04 471.558 92.3719 465.889 44.9473L470.842 23.0045Z" fill="#1089FE"></path><path opacity="0.1" d="M352.31 294.678C330.489 272.879 345.002 223.038 384.727 183.354C424.452 143.671 474.345 129.172 496.166 150.971C517.988 172.77 503.474 222.611 463.75 262.295C424.025 301.978 374.132 316.477 352.31 294.678Z" fill="black"></path><path d="M470.842 112.899C470.842 112.899 463.048 125.64 468.008 150.414C472.967 175.188 455.253 175.188 455.253 175.188H419.825L407.78 144.043L424.785 145.459C424.785 145.459 436.122 142.628 431.162 116.438L470.842 112.899Z" fill="#FFD2D9"></path><path d="M364.555 83.1702C369.976 100.406 376.771 121.393 380.399 132.591L382.978 140.504L406.361 116.438C406.361 116.438 405.333 114.053 403.796 110.712C400.373 103.308 394.414 91.2253 391.481 90.2485C391.481 90.2485 424.075 88.125 433.995 95.9111C443.915 103.697 441.08 74.6762 441.08 74.6762C441.08 74.6762 421.949 73.2605 414.863 69.0135C407.778 64.7666 369.515 60.5196 369.515 60.5196C369.515 60.5196 356.761 58.3961 364.555 83.1702Z" fill="#FFD2D9"></path><path opacity="0.1" d="M492.807 296.935C492.807 296.935 432.579 269.33 411.322 273.577L492.807 296.935Z" fill="black"></path><path opacity="0.1" d="M554.453 231.814C554.453 231.814 481.471 228.983 441.791 254.465L554.453 231.814Z" fill="black"></path><path opacity="0.1" d="M518.316 260.835C518.316 260.835 460.923 246.679 430.454 251.634L518.316 260.835Z" fill="black"></path><path d="M151.987 291.272L156.947 327.371L169.701 325.956C169.701 325.956 170.474 325.248 171.785 324.059C175.221 321.036 182.371 315.112 189.215 311.884C191.531 310.703 194.042 309.955 196.627 309.676L182.456 288.441C179.007 289.731 175.472 290.776 171.877 291.569C168.141 292.444 164.319 292.895 160.483 292.914C157.567 292.968 154.673 292.408 151.987 291.272Z" fill="#FFD2D9"></path><path d="M187.415 316.754C193.792 322.417 222.843 310.383 227.803 328.787L232.367 311.332L246.417 257.615L248.352 250.218L260.057 249.715L394.387 243.989L402.011 243.678L406.021 243.508L400.7 240.875L365.272 223.335C365.272 223.335 352.518 222.443 334.91 220.029C308.225 216.377 270.431 209.235 249.089 196.444C213.66 175.209 200.198 246.7 200.198 246.7C200.198 246.7 194.813 264.842 190.703 282.714C188.747 291.208 187.082 299.702 186.452 306.115C185.849 311.559 186.034 315.529 187.415 316.754Z" fill="#E9E9EF"></path><path opacity="0.05" d="M187.414 316.754C193.792 322.417 222.843 310.384 227.803 328.787L232.366 311.332L246.417 257.615L248.351 250.218L260.397 249.51L390.206 241.505L398.219 241.009L400.685 240.861L403.881 240.662L365.264 223.321C365.264 223.321 352.51 222.429 334.902 220.015C308.218 216.363 270.423 209.221 249.081 196.43C213.653 175.195 200.19 246.686 200.19 246.686C200.19 246.686 194.805 264.828 190.695 282.7C188.739 291.194 187.074 299.688 186.444 306.101C185.849 311.559 186.033 315.53 187.414 316.754Z" fill="black"></path><path opacity="0.1" d="M171.877 291.569L184.277 306.094L189.237 311.884C191.552 310.703 194.064 309.955 196.648 309.676L182.477 288.441C179.022 289.732 175.48 290.777 171.877 291.569Z" fill="black"></path><path d="M172.535 289.856L186.401 306.094L193.083 313.923V316.046C201.26 317.929 226.747 312.564 232.366 311.332C233.075 311.183 233.471 311.091 233.471 311.091C249.768 311.799 309.996 276.408 309.996 276.408C309.996 276.408 375.893 287.733 407.778 284.902C425.584 283.316 430.573 276.882 431.508 271.502C431.919 268.843 431.553 266.122 430.452 263.667L402.01 243.678L398.234 241.023L392.204 236.776C392.204 236.776 381.724 234.405 368.41 231.468C347.614 226.888 319.895 220.935 314.283 220.503C305.072 219.795 281.689 227.582 268.226 243.154C265.909 245.599 263.29 247.739 260.432 249.524L260.064 249.765C256.28 252.271 251.618 254.939 246.424 257.664C229.27 266.689 206.404 276.379 190.681 282.743C179.939 287.053 172.535 289.856 172.535 289.856Z" fill="#E9E9EF"></path><path opacity="0.1" d="M151.986 291.272L156.946 327.371L169.7 325.956C169.7 325.956 170.472 325.248 171.783 324.059C168.949 324.122 164.301 323.308 163.323 317.462C163.323 317.462 168.233 300.297 160.489 292.914C157.57 292.969 154.673 292.409 151.986 291.272Z" fill="black"></path><path d="M161.907 317.462C161.907 317.462 168.993 292.688 152.696 289.856L125.771 300.474L94.5938 302.597C94.5938 302.597 86.4523 315.876 99.5041 330.741C103.08 334.771 107.433 338.04 112.303 340.351C117.173 342.661 122.46 343.967 127.847 344.189L161.914 345.782L172.543 323.839C172.543 323.839 163.325 325.956 161.907 317.462Z" fill="#23384D"></path><path opacity="0.1" d="M334.904 220.015C338.447 221.055 353.242 225.465 368.377 231.453C375.855 234.33 383.14 237.685 390.186 241.498C391.653 242.319 393.02 243.147 394.367 243.982C398.335 246.495 401.53 249.071 403.507 251.627C412.251 262.952 425.097 269.011 431.488 271.495C431.9 268.836 431.533 266.115 430.433 263.66L402.012 243.678L406.023 243.508L400.701 240.875L403.897 240.676L365.28 223.335C365.28 223.335 352.505 222.443 334.904 220.015Z" fill="black"></path><path opacity="0.1" d="M380.4 132.591L382.979 140.504L406.361 116.438C406.361 116.438 405.334 114.053 403.796 110.712C400.842 116.976 386.727 127.898 380.4 132.591Z" fill="black"></path><path d="M464.761 144.348C465.597 141.948 466.209 139.477 466.589 136.965L497.058 147.582C497.058 147.582 517.96 163.509 515.835 198.192C515.835 198.192 489.972 188.637 478.635 199.962L478.401 201.958C476.003 221.747 467.238 240.223 453.424 254.606C447.756 260.517 442.477 267.185 439.664 273.576C439.664 273.576 419.824 267.914 407.778 252.341C395.733 236.769 338.339 220.489 338.339 220.489C338.339 220.489 368.807 221.197 373.059 210.579C377.31 199.962 391.481 177.311 386.521 159.616C381.562 141.92 378.727 136.257 378.727 136.257C378.727 136.257 407.778 115.73 405.653 109.36L424.075 130.595L432.578 133.426C431.91 135.069 431.571 136.827 431.579 138.6C431.126 157.846 458.306 162.475 464.761 144.348Z" fill="#23384D"></path><path d="M634.102 233.06C634.102 233.06 628.164 240.846 636.844 252.526C645.524 264.205 652.681 274.122 649.783 281.426C649.783 281.426 636.689 259.675 626.032 259.37C615.375 259.066 622.376 246.162 634.102 233.06Z" fill="#1089FE"></path><path opacity="0.1" d="M634.102 233.06C633.585 233.81 633.177 234.63 632.891 235.495C622.489 247.698 616.955 259.087 626.946 259.377C636.256 259.646 647.423 276.273 650.102 280.478C650.013 280.802 649.907 281.121 649.783 281.433C649.783 281.433 636.688 259.682 626.032 259.377C615.375 259.073 622.375 246.162 634.102 233.06Z" fill="black"></path><path d="M623.083 242.97C623.083 245.702 623.388 247.924 623.791 247.924C624.195 247.924 624.5 245.709 624.5 242.97C624.5 240.23 624.117 241.554 623.742 241.554C623.366 241.554 623.083 240.237 623.083 242.97Z" fill="#FFD037"></path><path d="M619.279 246.233C621.681 247.542 623.772 248.356 623.949 247.995C624.126 247.634 622.333 246.332 619.931 245.03C617.529 243.727 618.479 244.676 618.295 245.03C618.11 245.383 616.877 244.923 619.279 246.233Z" fill="#FFD037"></path><path d="M665.468 233.06C665.468 233.06 671.406 240.846 662.726 252.526C654.046 264.205 646.89 274.122 649.788 281.426C649.788 281.426 662.882 259.675 673.539 259.37C684.196 259.066 677.188 246.162 665.468 233.06Z" fill="#1089FE"></path><path opacity="0.1" d="M665.468 233.06C665.986 233.81 666.394 234.63 666.68 235.495C677.082 247.698 682.616 259.087 672.625 259.377C663.314 259.646 652.147 276.273 649.469 280.478C649.557 280.802 649.664 281.121 649.788 281.433C649.788 281.433 662.882 259.682 673.539 259.377C684.196 259.073 677.188 246.162 665.468 233.06Z" fill="black"></path><path d="M676.51 242.97C676.51 245.702 676.205 247.924 675.801 247.924C675.397 247.924 675.093 245.709 675.093 242.97C675.093 240.23 675.475 241.554 675.851 241.554C676.226 241.554 676.51 240.237 676.51 242.97Z" fill="#FFD037"></path><path d="M680.291 246.233C677.889 247.542 675.799 248.356 675.622 247.995C675.445 247.634 677.237 246.332 679.64 245.03C682.042 243.727 681.092 244.676 681.276 245.03C681.461 245.383 682.693 244.923 680.291 246.233Z" fill="#FFD037"></path><path d="M674.617 280.435C674.617 280.435 658.016 279.926 653.013 276.365C648.011 272.805 627.505 268.579 626.236 274.242C624.968 279.905 601.288 302.633 620.029 302.782C638.771 302.93 663.578 299.865 668.573 296.829C673.569 293.792 674.617 280.435 674.617 280.435Z" fill="#A8A8A8"></path><path opacity="0.2" d="M619.689 300.821C638.43 300.969 663.237 297.905 668.232 294.868C672.037 292.553 673.554 284.251 674.057 280.421H674.609C674.609 280.421 673.561 293.799 668.565 296.836C663.57 299.872 638.763 302.944 620.022 302.789C614.608 302.746 612.745 300.821 612.844 297.975C613.602 299.71 615.664 300.785 619.689 300.821Z" fill="black"></path><path d="M541.908 374.053C540.609 372.995 539.663 371.569 539.194 369.962C538.84 368.334 539.534 366.387 541.093 365.793C542.836 365.127 544.7 366.331 546.11 367.555C547.52 368.78 549.142 370.167 550.992 369.905C550.041 369.045 549.33 367.952 548.928 366.736C548.525 365.519 548.446 364.218 548.696 362.961C548.776 362.44 548.996 361.951 549.334 361.546C550.304 360.512 552.055 360.958 553.217 361.772C556.901 364.363 557.929 369.36 557.95 373.862C558.318 372.241 558.007 370.549 558.021 368.907C558.035 367.265 558.488 365.368 559.891 364.505C560.761 364.038 561.738 363.806 562.726 363.832C564.384 363.768 566.226 363.938 567.36 365.149C568.777 366.649 568.401 369.176 567.175 370.811C565.95 372.446 564.093 373.501 562.378 374.648C561.004 375.464 559.832 376.579 558.949 377.911C558.845 378.095 558.76 378.29 558.694 378.491H548.328C545.997 377.308 543.837 375.815 541.908 374.053Z" fill="#1089FE"></path><path d="M495.853 396.569C494.555 395.511 493.608 394.085 493.139 392.478C492.785 390.85 493.48 388.903 495.038 388.309C496.782 387.643 498.645 388.847 500.055 390.071C501.465 391.296 503.088 392.683 504.937 392.421C503.987 391.56 503.275 390.468 502.873 389.251C502.471 388.035 502.391 386.734 502.641 385.477C502.721 384.956 502.942 384.467 503.279 384.062C504.25 383.028 506 383.474 507.162 384.288C510.846 386.879 511.874 391.876 511.895 396.378C512.264 394.757 511.952 393.065 511.966 391.423C511.98 389.781 512.434 387.884 513.837 387.02C514.707 386.553 515.684 386.322 516.671 386.348C518.329 386.284 520.171 386.454 521.305 387.665C522.722 389.165 522.346 391.692 521.121 393.327C519.895 394.962 518.038 396.017 516.324 397.164C514.949 397.98 513.777 399.095 512.894 400.427C512.79 400.611 512.705 400.806 512.639 401.007H502.273C499.942 399.824 497.783 398.331 495.853 396.569Z" fill="#1089FE"></path><path d="M439.311 289.503C439.311 289.503 370.58 261.189 314.603 288.087L328.066 316.4L392.545 317.816L439.311 289.503Z" fill="#1089FE"></path><path opacity="0.1" d="M432.239 125.739C432.023 123.093 431.664 120.461 431.162 117.854L470.842 114.315C470.842 114.315 468.093 116.686 466.895 125.534C462.24 128.294 456.805 132.01 451.002 132.01C444.23 132.021 437.641 129.818 432.239 125.739Z" fill="black"></path><path d="M450.647 130.949C433.429 130.949 419.471 117.005 419.471 99.8041C419.471 82.6034 433.429 68.6595 450.647 68.6595C467.866 68.6595 481.824 82.6034 481.824 99.8041C481.824 117.005 467.866 130.949 450.647 130.949Z" fill="#FFD2D9"></path><path d="M473.677 107.944H469.425V95.9109L465.174 83.17C465.174 83.17 443.917 73.2603 433.997 75.3838L426.203 82.4621C426.203 82.4621 424.077 65.4742 436.831 59.1037C449.586 52.7333 472.26 55.5646 477.928 60.5194C483.597 65.4742 492.808 73.9682 485.722 97.3266L483.597 102.989C483.597 102.989 475.094 100.158 473.677 107.944Z" fill="#844F6E"></path><g opacity="0.05"><path opacity="0.05" d="M418.605 124.295L416.281 123.524L405.554 111.186C405.764 110.602 405.789 109.966 405.625 109.367L418.605 124.295Z" fill="black"></path><path opacity="0.05" d="M433.521 147.122C427.903 144.645 423.602 139.266 423.793 131.55C423.793 131.133 423.793 130.736 423.864 130.361L424.09 130.616L432.593 133.447C431.925 135.09 431.586 136.848 431.594 138.621C431.482 141.575 432.147 144.506 433.521 147.122Z" fill="black"></path><path opacity="0.05" d="M350.866 219.909C368.623 226.081 392.671 235.8 399.984 245.263C400.161 245.497 400.345 245.716 400.529 245.971C381.072 232.643 338.339 220.489 338.339 220.489C342.522 220.533 346.705 220.339 350.866 219.909Z" fill="black"></path><path opacity="0.05" d="M431.87 266.498C434.704 260.128 439.997 253.439 445.63 247.528C459.444 233.145 468.209 214.669 470.607 194.88L470.841 192.884C482.178 181.559 508.04 191.114 508.04 191.114C509.387 169.115 501.472 154.668 495.506 147.038L497.058 147.583C497.058 147.583 517.96 163.509 515.835 198.193C515.835 198.193 489.972 188.637 478.635 199.962L478.401 201.958C476.004 221.747 467.238 240.223 453.424 254.607C447.756 260.517 442.477 267.185 439.664 273.577C439.664 273.577 422.396 268.622 410.301 255.343C416.82 260.233 424.109 264.003 431.87 266.498Z" fill="black"></path></g><path d="M439.665 183.682C439.665 183.682 473.676 232.522 491.39 246.679C509.105 260.836 514.064 240.309 514.064 240.309V195.007L482.888 191.468L482.555 195.765L482.179 200.67L453.128 169.525C453.128 169.525 424.077 143.336 418.408 158.908C412.74 174.48 439.665 183.682 439.665 183.682Z" fill="#FFD2D9"></path><path opacity="0.1" d="M482.553 195.765C486.809 198.238 491.324 200.239 496.016 201.732C502.712 203.792 510.385 201.626 514.084 200.316V195.029L482.907 191.49L482.553 195.765Z" fill="black"></path><path d="M514.418 190.406L516.281 197.987C516.281 197.987 505.206 203.147 495.995 200.316C486.784 197.484 479.698 192.53 478.281 191.822C476.864 191.114 483.949 183.328 483.949 183.328L514.418 190.406Z" fill="#CEDAD5"></path><path opacity="0.1" d="M310.352 276.762C305.627 273.142 300.368 270.276 294.763 268.268C289.438 266.439 284.421 263.814 279.883 260.482" fill="black"></path><path opacity="0.2" d="M94.5943 302.598L95.7563 302.52C94.07 306.767 91.6325 317.236 101.63 328.639C105.206 332.669 109.56 335.938 114.43 338.249C119.299 340.56 124.586 341.865 129.973 342.088L162.971 343.631L161.915 345.804L127.84 344.19C122.453 343.967 117.167 342.662 112.297 340.351C107.427 338.04 103.074 334.772 99.4975 330.741C86.4529 315.877 94.5943 302.598 94.5943 302.598Z" fill="white"></path><path opacity="0.05" d="M255.269 339.051H255.375C255.283 340.721 255.12 344.168 255.092 347.955C255.063 344.628 255.17 341.358 255.269 339.051Z" fill="#00FF00"></path><path opacity="0.05" d="M214.908 332.935C214.809 333.364 214.698 333.786 214.575 334.202C213.881 333.805 212.882 333.055 214.908 332.935Z" fill="#00FF00"></path><path opacity="0.2" d="M159.073 349.314C166.336 352.613 220.952 343.008 228.378 341.677C228.526 342.384 228.813 343.055 229.221 343.652C229.221 343.652 166.867 354.977 159.073 351.438C155.062 349.619 154.056 347.233 154.602 345.067C155.013 346.575 156.345 348.076 159.073 349.314Z" fill="white"></path><path opacity="0.05" d="M255.373 339.058C255.409 338.35 255.437 337.989 255.437 337.989C255.437 337.989 259.044 339.277 255.373 339.058Z" fill="#00FF00"></path><path opacity="0.1" d="M423.07 84.2318H466.179C467.776 84.2318 469.07 85.5248 469.07 87.1198V105.41C469.07 107.005 467.776 108.298 466.179 108.298H423.07C421.474 108.298 420.179 107.005 420.179 105.41V87.1198C420.179 85.5248 421.474 84.2318 423.07 84.2318Z" fill="black"></path><path opacity="0.1" d="M468.673 92.0178H485.763C486.718 92.0178 487.492 92.7911 487.492 93.7449V99.4925C487.492 100.446 486.718 101.22 485.763 101.22H468.673C467.718 101.22 466.944 100.446 466.944 99.4925V93.7449C466.944 92.7911 467.718 92.0178 468.673 92.0178Z" fill="black"></path><path d="M423.07 83.5239H466.179C467.776 83.5239 469.07 84.8169 469.07 86.4119V104.702C469.07 106.297 467.776 107.59 466.179 107.59H423.07C421.474 107.59 420.179 106.297 420.179 104.702V86.4119C420.179 84.8169 421.474 83.5239 423.07 83.5239Z" fill="#7679B4"></path><path d="M423.119 84.9395H460.474C462.071 84.9395 463.365 86.2324 463.365 87.8274V103.286C463.365 104.881 462.071 106.174 460.474 106.174H423.119C421.522 106.174 420.228 104.881 420.228 103.286V87.8274C420.228 86.2324 421.522 84.9395 423.119 84.9395Z" fill="#565388"></path><path d="M468.673 91.3101H485.763C486.718 91.3101 487.492 92.0833 487.492 93.0372V98.7847C487.492 99.7386 486.718 100.512 485.763 100.512H468.673C467.718 100.512 466.944 99.7386 466.944 98.7847V93.0372C466.944 92.0833 467.718 91.3101 468.673 91.3101Z" fill="#565388"></path><path opacity="0.1" d="M430.835 84.9254C423.167 80.2942 416.94 73.623 412.851 65.6583C412.377 64.731 411.923 63.6905 412.185 62.6854C412.688 60.7601 415.204 60.4203 417.018 59.5922C420.398 58.042 421.822 54.1277 424.04 51.1478C425.935 48.6621 428.484 46.7507 431.403 45.626C434.321 44.5013 437.495 44.2075 440.571 44.7773C443.802 45.4285 446.792 47.0282 450.051 47.5095C457.08 48.5359 464.747 44.2818 471.06 47.5095C473.937 48.9889 475.885 51.7565 477.6 54.517C481.901 61.3901 487.293 68.6737 483.382 76.7358C481.136 81.3438 477.55 85.1661 472.513 86.511C467.475 87.8559 461.643 86.7375 456.52 86.1783C452.304 85.7253 447.89 84.7626 443.646 85.2086C438.679 85.7465 435.575 87.7709 430.835 84.9254Z" fill="black"></path><path d="M430.835 83.5099C423.167 78.8787 416.94 72.2075 412.851 64.2428C412.377 63.3155 411.923 62.275 412.185 61.2699C412.688 59.3446 415.204 59.0048 417.018 58.1767C420.398 56.6265 421.822 52.7122 424.04 49.7322C425.935 47.2466 428.484 45.3351 431.403 44.2104C434.321 43.0857 437.495 42.792 440.571 43.3618C443.802 44.013 446.792 45.6127 450.051 46.094C457.08 47.1204 464.747 42.8663 471.06 46.094C473.937 47.5734 475.885 50.341 477.6 53.1015C481.901 59.9745 487.293 67.2581 483.382 75.3203C481.136 79.9283 477.55 83.7506 472.513 85.0954C467.475 86.4403 461.643 85.3219 456.52 84.7628C452.304 84.3097 447.89 83.3471 443.646 83.793C438.679 84.331 435.575 86.3554 430.835 83.5099Z" fill="#844F6E"></path><path opacity="0.2" d="M0.00811768 165.101L308.227 220.135V55.0338L0.00811768 0V165.101Z" fill="#1089FE"></path><path opacity="0.2" d="M63.8627 19.0478L6.85869 9.23022L6.02972 34.7475L64.543 44.5226L63.8627 19.0478Z" fill="#1089FE"></path><g opacity="0.2"><path opacity="0.1" d="M174.738 161.512C172.805 161.076 170.821 160.911 168.843 161.024C157.187 161.229 145.092 162.369 133.655 158.9C127.583 157.074 122.134 154.059 115.87 152.764C105.242 150.576 94.6134 153.769 84.1621 151.107C82.0364 150.562 79.436 149.798 77.9267 150.619C76.1766 151.567 77.4166 154.031 75.2838 154.653C74.6089 154.737 73.9441 154.889 73.2998 155.106C72.5204 155.559 73.0093 156.522 73.7887 157.138C78.529 160.981 88.1726 158.426 94.1104 161.534C95.4283 162.241 96.4203 163.133 97.6532 163.869C99.6046 164.874 101.673 165.635 103.811 166.134L136.78 175.336C144.673 177.538 152.673 179.767 160.836 180.737C168.998 181.707 177.466 181.31 183.446 178.543C184.729 177.948 185.919 177.219 186.408 176.228C188.732 171.556 182.95 163.692 174.738 161.512Z" fill="#252223"></path><path opacity="0.3" d="M203.825 96.3073L176.241 118.094L148.656 139.874L193.962 148.432L239.268 156.982L221.546 126.645L203.825 96.3073Z" fill="#1089FE"></path><path opacity="0.3" d="M175.144 91.2675L147.559 113.047L119.975 134.834L165.28 143.385L210.586 151.943L192.865 121.605L175.144 91.2675Z" fill="#1089FE"></path><path opacity="0.2" d="M132.48 45.9451L185.715 147.25L84.7586 127.622L47.4527 120.579L132.48 45.9451Z" fill="#1089FE"></path><path opacity="0.1" d="M47.4526 120.579L84.7586 127.622L132.48 45.9451L47.4526 120.579Z" fill="black"></path><path opacity="0.2" d="M104.413 92.9096C104.592 92.25 104.999 91.675 105.562 91.2863C106.125 90.8977 106.807 90.7205 107.488 90.7861C107.488 90.7861 106.779 85.2226 118.258 87.4664C118.456 87.0651 118.743 86.7144 119.097 86.4413C119.452 86.1682 119.864 85.98 120.303 85.8911C120.741 85.8022 121.195 85.8151 121.628 85.9286C122.061 86.0422 122.462 86.2535 122.8 86.5462L123.289 83.9626C123.289 83.9626 129.581 87.5655 122.913 92.7044L122.113 96.9513C122.093 97.0588 122.059 97.1634 122.014 97.2628C121.978 97.3401 121.949 97.4207 121.928 97.5034C121.624 98.7421 119.385 108.56 124.472 111.915C129.921 115.56 133.039 104.327 133.039 104.327C136.582 89.6536 143.327 89.7102 144.928 89.9438C145.12 89.9438 145.318 89.9863 145.517 90.0005C146.268 90.0429 148.599 90.8781 149.492 99.3367C150.562 109.487 154.452 106.953 154.452 106.953C163.174 102.203 169.331 106.358 169.331 106.358C184.466 115.249 171.599 131.925 168.942 135.089C169.941 140.122 171.96 148.991 173.902 149.359C176.651 149.876 181.795 159.516 167.865 174.508L164.159 173.8C164.159 173.8 175.616 158.851 166.596 151.412C166.792 151.96 167.029 152.492 167.305 153.004C172.357 161.633 155.167 172.031 155.167 172.031L151.043 171.252L160.566 159.269C164.35 154.314 157.293 150.265 157.293 150.265C148.939 143.286 153.24 134.863 153.24 134.863L133.74 131.182C136.149 136.505 139.692 149.586 127.916 166.814L125.167 166.297L127.413 145.402C127.413 145.402 126.704 140.908 121.928 134.127C120.03 142.621 116.005 157.28 109.925 163.417L105.943 162.666C105.943 162.666 110.797 148.757 110.903 143.555C110.953 141.431 111.045 139.343 111.236 137.248L112.228 126.291C110.619 125.272 109.358 123.789 108.612 122.039C107.865 120.288 107.668 118.352 108.048 116.487L111.711 97.4751C111.763 97.2076 111.759 96.9323 111.7 96.6661C111.642 96.3999 111.53 96.1485 111.37 95.9272C111.211 95.7059 111.009 95.5194 110.775 95.379C110.541 95.2387 110.281 95.1475 110.01 95.111L105.313 94.4739C105.143 94.4442 104.982 94.3775 104.841 94.2787C104.7 94.1799 104.582 94.0513 104.496 93.9021C104.41 93.7529 104.359 93.5866 104.344 93.4151C104.33 93.2436 104.353 93.0711 104.413 92.9096Z" fill="url(#paint0_linear)"></path><path opacity="0.2" d="M123.545 127.848C123.545 127.848 119.138 154.08 110.514 162.773L106.603 162.065C106.603 162.065 111.365 148.411 111.492 143.321C111.542 141.255 111.627 139.188 111.818 137.128L113.42 119.432L123.545 127.848Z" fill="#535461"></path><path opacity="0.05" d="M123.545 127.848C123.545 127.848 119.138 154.08 110.514 162.773L106.603 162.065C106.603 162.065 111.365 148.411 111.492 143.321C111.542 141.255 111.627 139.188 111.818 137.128L113.42 119.432L123.545 127.848Z" fill="black"></path><path opacity="0.2" d="M167.823 131.607C167.823 131.607 170.657 148.46 173.336 148.97C176.014 149.479 181.087 158.943 167.405 173.659L163.763 172.951C163.763 172.951 176.375 156.501 164.379 149.77C164.386 149.791 162.296 135.719 167.823 131.607Z" fill="#535461"></path><path opacity="0.05" d="M167.823 131.607C167.823 131.607 170.657 148.46 173.336 148.97C176.014 149.479 181.087 158.943 167.405 173.659L163.763 172.951C163.763 172.951 176.375 156.501 164.379 149.77C164.386 149.791 162.296 135.719 167.823 131.607Z" fill="black"></path><path opacity="0.2" d="M122.462 97.553L123.248 93.4051C129.788 88.3653 123.617 84.8262 123.617 84.8262L122.774 89.2713C107.277 84.812 108.106 91.5223 108.106 91.5223C107.441 91.4545 106.773 91.6241 106.22 92.0011C105.668 92.378 105.267 92.9381 105.088 93.582C105.03 93.7439 105.01 93.9164 105.028 94.0872C105.046 94.2579 105.101 94.4225 105.191 94.569C105.281 94.7155 105.402 94.8402 105.546 94.9339C105.69 95.0277 105.853 95.0882 106.023 95.1109L110.636 95.7409C110.902 95.7766 111.157 95.866 111.387 96.0037C111.617 96.1414 111.816 96.3246 111.973 96.5419C112.129 96.7593 112.24 97.0062 112.297 97.2677C112.355 97.5292 112.359 97.7997 112.308 98.0626L108.716 116.728C108.454 118.064 108.488 119.44 108.813 120.762C109.139 122.083 109.749 123.318 110.601 124.38C111.933 126.015 114.065 127.487 117.467 128.025L153.065 134.749C153.065 134.749 148.813 143.024 157.047 149.869C157.047 149.869 163.977 153.825 160.264 158.709L150.918 170.474L154.964 171.238C154.964 171.238 171.835 161.031 166.875 152.558C165.528 149.866 164.924 146.864 165.124 143.86C165.325 140.857 166.323 137.961 168.016 135.471C168.016 135.471 185.305 116.417 168.845 106.748C168.845 106.748 162.772 102.671 154.213 107.335C154.213 107.335 150.394 109.82 149.345 99.8605C148.473 91.5577 146.185 90.7366 145.448 90.6941C145.256 90.6941 145.065 90.6941 144.874 90.6375C143.301 90.411 136.662 90.3543 133.197 104.759C133.197 104.759 130.136 115.758 124.8 112.24C119.805 108.949 121.966 99.3084 122.299 98.0838C122.32 98.0035 122.348 97.9253 122.384 97.8503C122.421 97.7545 122.448 97.6548 122.462 97.553Z" fill="#535461"></path><path opacity="0.2" d="M132.508 128.563C132.508 128.563 143.463 143.746 128.193 166.078L125.494 165.568L127.697 145.041C127.697 145.041 126.394 136.427 114.568 125.123L132.508 128.563Z" fill="#535461"></path><path opacity="0.2" d="M120.722 92.41C119.157 92.1146 118.128 90.6077 118.424 89.0443C118.72 87.4809 120.228 86.453 121.793 86.7484C123.358 87.0438 124.387 88.5507 124.092 90.1141C123.796 91.6775 122.287 92.7054 120.722 92.41Z" fill="#535461"></path><path opacity="0.2" d="M133.4 108.439C130.07 103.378 132.054 103.046 133.344 101.715C134.222 100.809 141.606 100.462 146.204 100.335C146.303 99.9807 146.459 99.3862 146.643 98.6642C146.643 98.6642 147.012 97.3335 147.182 96.3991H146.891L146.934 96.1231L141.265 95.8187C136.426 95.6205 136.192 93.6952 136.192 93.6952C136.079 90.3896 141.542 93.5607 141.542 93.5607C142.626 94.0916 145.503 93.6952 147.749 93.2563C147.811 92.7869 147.847 92.3142 147.855 91.8407C147.827 91.1087 147.875 90.3758 147.997 89.6535C148.076 89.0298 148.321 88.4385 148.705 87.9406C150.367 85.9564 152.288 84.2042 154.416 82.7309C154.542 81.4819 154.426 80.2204 154.076 79.0148C153.217 78.5738 152.521 77.8689 152.093 77.0037C151.664 76.1385 151.525 75.1588 151.695 74.2086C151.778 73.7735 151.926 73.3534 152.135 72.9629C151.122 71.618 151.596 69.3175 152.999 68.0576C153.149 67.9231 153.31 67.8022 153.481 67.6966C154.391 67.0888 155.493 66.8368 156.578 66.9888C157.787 67.1861 158.935 67.6557 159.936 68.362C161.134 69.1547 162.296 70.1598 163.727 70.3156C164.761 70.4288 165.853 70.0749 166.823 70.3934C168.106 70.804 168.765 72.1701 169.176 73.4229C169.587 74.6758 169.984 76.0561 171.096 76.8064C172.067 77.4576 173.321 77.4505 174.462 77.7265C175.258 77.894 176.001 78.2547 176.625 78.7768C177.249 79.299 177.735 79.9666 178.04 80.7207C178.264 81.3998 178.26 82.1337 178.027 82.81C177.794 83.4863 177.346 84.0677 176.75 84.4651C176.563 84.6026 176.358 84.7144 176.141 84.7978C175.898 84.8725 175.662 84.9647 175.432 85.0738C175.37 85.12 175.316 85.1782 175.276 85.245C175.236 85.3119 175.21 85.386 175.199 85.4631C175.195 85.6563 175.236 85.8477 175.319 86.0223C175.451 86.4127 175.501 86.826 175.465 87.2364C175.43 87.6469 175.31 88.0456 175.114 88.4077C174.983 88.6721 174.779 88.8932 174.525 89.0448C174.454 89.1042 174.376 89.1541 174.292 89.1934C173.463 89.5544 172.435 88.7404 171.613 89.1085H171.55C171.23 89.4536 170.954 89.8362 170.728 90.2481C170.533 90.4912 170.292 90.6933 170.019 90.8426C169.298 91.3144 168.426 91.5012 167.574 91.3665C166.493 91.1583 165.461 90.7451 164.535 90.149C163.281 89.4412 161.913 88.4573 161.814 87.0558C161.757 86.1993 162.204 85.3711 162.097 84.5217C162.04 84.116 161.876 83.7327 161.622 83.4104C161.764 84.1279 161.814 84.8605 161.771 85.5905C161.746 86.1826 161.675 86.7718 161.559 87.353C161.29 88.8724 160.742 90.3291 159.943 91.6496C158.869 93.3681 158.082 95.2494 157.612 97.2202C157.444 98.0887 157.43 98.9798 157.57 99.8533C158.023 102.387 157.973 103.477 157.846 103.938C157.768 104.56 157.562 104.567 157.562 104.567H157.513C157.49 104.997 157.381 105.417 157.191 105.803C157.001 106.189 156.734 106.532 156.407 106.811C149.995 109.459 136.95 105.707 136.95 105.707C139.586 106.634 141.471 113.847 141.471 113.847C141.758 115.417 142.414 116.897 143.384 118.165C144.801 117.953 146.473 119.538 147.735 120.465L147.841 120.536C147.964 120.62 148.067 120.729 148.144 120.856C148.221 120.983 148.27 121.125 148.287 121.273C148.305 121.42 148.29 121.57 148.245 121.712C148.2 121.853 148.125 121.983 148.025 122.093L143.008 127.586C140.118 129.632 138.452 129.766 137.985 129.186C137.68 128.804 137.886 128.124 138.594 127.466C140.309 125.873 140.061 120.706 140.011 120.267C139.225 118.498 136.199 112.693 133.4 108.439Z" fill="url(#paint1_linear)"></path><path opacity="0.2" d="M153.673 78.3638C153.673 78.3638 155.132 81.7119 154.169 84.5927L159.604 81.7119C159.604 81.7119 157.875 81.2447 158.236 77.1322L153.673 78.3638Z" fill="#F9D5C6"></path><path opacity="0.2" d="M150.03 100.554C150.03 100.554 135.611 100.76 134.385 102.062C133.159 103.364 131.282 103.711 134.385 108.624C137.489 113.536 140.918 120.6 140.918 120.6L144.588 118.922C143.258 117.518 142.377 115.748 142.059 113.84C142.059 113.84 140.316 106.811 137.807 105.927C137.807 105.927 150.115 109.508 156.23 106.889C156.23 106.889 157.86 105.665 157.102 103.01C156.343 100.356 150.03 100.554 150.03 100.554Z" fill="#353535"></path><path opacity="0.1" d="M158.038 81.8391C158.038 81.8391 161.637 80.9543 161.375 86.4683C161.271 88.4667 160.683 90.41 159.66 92.131C158.491 94.127 156.826 97.56 157.315 100.413C158.023 104.73 157.315 104.737 157.315 104.737L155.473 103.619C152.99 102.105 150.141 101.297 147.232 101.283H146.375C146.375 101.283 148.104 95.0826 148.139 92.3362C148.139 91.0338 148.139 89.8234 148.926 88.7971C151.384 85.626 156.316 81.832 158.038 81.8391Z" fill="black"></path><path opacity="0.2" d="M158.086 81.5842C158.086 81.5842 161.686 80.6994 161.424 86.2134C161.32 88.2119 160.731 90.1551 159.709 91.8761C158.54 93.8721 156.875 97.3051 157.364 100.158C158.072 104.475 157.364 104.483 157.364 104.483L155.521 103.364C153.039 101.85 150.19 101.042 147.281 101.028H146.424C146.424 101.028 148.152 94.8277 148.188 92.0813C148.188 90.7789 148.188 89.5685 148.974 88.5422C151.433 85.3569 156.365 81.5842 158.086 81.5842Z" fill="#409CD6"></path><path opacity="0.1" d="M159.426 86.0013C159.278 85.5943 159.029 85.231 158.704 84.9447C158.378 84.6584 157.986 84.4582 157.563 84.3624C157.14 84.2667 156.7 84.2784 156.283 84.3965C155.865 84.5146 155.485 84.7354 155.175 85.0386C154.619 85.622 154.177 86.3037 153.871 87.0489C152.163 90.9136 150.867 93.3202 150.867 93.3202C149.769 93.4829 148.686 93.7338 147.629 94.0705C147.466 95.3942 147.253 96.7674 147.253 96.7674L151.852 96.9939L158.151 89.5333C158.151 89.5333 160.071 87.9549 159.426 86.0013Z" fill="black"></path><path opacity="0.2" d="M159.484 85.7251C159.335 85.3182 159.087 84.9549 158.761 84.6686C158.436 84.3823 158.043 84.1821 157.62 84.0863C157.198 83.9905 156.757 84.0023 156.34 84.1204C155.923 84.2385 155.542 84.4593 155.232 84.7625C154.676 85.3459 154.234 86.0276 153.928 86.7727C152.221 90.6375 150.924 93.0441 150.924 93.0441C150.924 93.0441 144.001 94.9482 142.216 94.0492C142.216 94.0492 137.072 90.9843 137.157 94.212C137.157 94.212 137.362 96.0666 141.939 96.2294L151.902 96.7178L158.201 89.2572C158.201 89.2572 160.121 87.6504 159.484 85.7251Z" fill="#F9D5C6"></path><path opacity="0.1" d="M158.654 78.951C158.52 78.3069 158.215 78.5546 158.314 77.4221L153.751 78.6537C153.94 79.1139 154.097 79.587 154.219 80.0694C154.676 80.2258 155.153 80.3141 155.636 80.3313C156.642 80.5295 157.797 79.4253 158.654 78.951Z" fill="black"></path><path opacity="0.2" d="M155.415 80.2652C153.031 79.8152 151.464 77.5198 151.914 75.1382C152.365 72.7566 154.663 71.1908 157.047 71.6408C159.431 72.0908 160.998 74.3862 160.548 76.7678C160.097 79.1494 157.799 80.7152 155.415 80.2652Z" fill="#F9D5C6"></path><path opacity="0.1" d="M154.433 74.9023C155.212 74.9448 156.062 74.697 156.721 75.1076C157.38 75.5181 157.572 76.6436 157.43 77.5213C157.288 78.399 156.92 79.2838 157.125 80.1544C157.402 81.294 158.542 81.9948 159.534 82.5964C160.526 83.1981 161.66 84.0121 161.766 85.1588C161.858 85.9869 161.433 86.8009 161.483 87.6362C161.568 89.0023 162.85 89.9437 164.041 90.6374C164.9 91.2075 165.863 91.6042 166.875 91.8053C167.39 91.8968 167.92 91.8507 168.412 91.6717C168.903 91.4927 169.339 91.1872 169.674 90.786C169.993 90.3472 170.184 89.7597 170.68 89.5332C171.46 89.1651 172.43 89.9578 173.21 89.6039C173.484 89.4587 173.703 89.2274 173.833 88.9457C174.02 88.5918 174.135 88.2042 174.17 87.8055C174.205 87.4068 174.161 87.0052 174.039 86.624C173.963 86.4526 173.926 86.2663 173.932 86.0789C173.996 85.633 174.542 85.4844 174.967 85.3216C175.667 84.9871 176.221 84.4099 176.526 83.6975C176.831 82.9851 176.866 82.1862 176.625 81.4497C176.352 80.7233 175.901 80.0769 175.313 79.5699C174.725 79.0628 174.019 78.7113 173.259 78.5476C172.182 78.2786 170.992 78.2928 170.085 77.6699C169.036 76.9621 168.668 75.596 168.292 74.3785C167.917 73.161 167.3 71.8303 166.089 71.441C165.153 71.1367 164.14 71.4835 163.162 71.3844C161.809 71.2428 160.718 70.266 159.619 69.5015C158.682 68.8188 157.597 68.3654 156.452 68.1779C155.879 68.0892 155.293 68.1256 154.736 68.2844C154.178 68.4432 153.661 68.7208 153.221 69.0981C151.265 70.8747 151.145 74.7253 154.433 74.9023Z" fill="black"></path><path opacity="0.2" d="M154.594 74.7961C155.374 74.8386 156.224 74.5908 156.883 75.0014C157.542 75.4119 157.733 76.5374 157.591 77.4151C157.45 78.2928 157.081 79.1776 157.287 80.0482C157.563 81.1878 158.704 81.8886 159.696 82.4902C160.688 83.0919 161.821 83.9059 161.928 85.0526C162.02 85.8807 161.595 86.6947 161.644 87.53C161.729 88.8961 163.012 89.8375 164.202 90.5312C165.062 91.1013 166.025 91.4981 167.036 91.6991C167.549 91.7909 168.077 91.7464 168.567 91.57C169.057 91.3935 169.492 91.0914 169.828 90.694C170.147 90.2551 170.338 89.6676 170.834 89.4411C171.614 89.073 172.585 89.8658 173.364 89.5119C173.638 89.3667 173.857 89.1354 173.987 88.8536C174.175 88.4997 174.289 88.1121 174.324 87.7135C174.36 87.3148 174.315 86.9131 174.193 86.5319C174.117 86.3605 174.081 86.1743 174.087 85.9869C174.15 85.541 174.696 85.3923 175.121 85.2295C175.821 84.8951 176.375 84.3178 176.68 83.6055C176.985 82.8931 177.02 82.0941 176.779 81.3577C176.506 80.6312 176.055 79.9849 175.467 79.4778C174.879 78.9708 174.173 78.6193 173.414 78.4556C172.337 78.1866 171.146 78.2008 170.239 77.5779C169.191 76.87 168.822 75.5039 168.447 74.2865C168.071 73.069 167.455 71.7383 166.243 71.349C165.308 71.0446 164.294 71.3914 163.317 71.2923C161.963 71.1508 160.872 70.174 159.774 69.4095C158.836 68.7267 157.751 68.2734 156.606 68.0859C156.033 67.9972 155.448 68.0335 154.89 68.1924C154.332 68.3512 153.815 68.6288 153.375 69.0061C151.427 70.7686 151.306 74.6121 154.594 74.7961Z" fill="#2F302F"></path><path opacity="0.1" d="M153.304 85.8949C153.304 85.8949 158.973 86.2629 158.491 90.2197C158.009 94.1765 160.461 85.7108 160.461 85.7108L158.257 83.3396L155.111 83.7218L153.304 85.8949Z" fill="black"></path><path opacity="0.2" d="M153.453 85.7818C153.453 85.7818 159.121 86.1499 158.64 90.1067C158.158 94.0635 160.609 85.5978 160.609 85.5978L158.406 83.2266L155.26 83.6088L153.453 85.7818Z" fill="#409CD6"></path><path opacity="0.2" d="M148.225 121.825L143.449 127.211C140.7 129.221 139.127 129.335 138.688 128.804C138.404 128.436 138.603 127.77 139.276 127.126C140.983 125.498 140.693 120.048 140.693 120.048C141.369 120.069 142.036 119.884 142.604 119.517C143.172 119.151 143.615 118.62 143.874 117.995C145.228 117.783 146.786 119.319 147.977 120.211L148.076 120.282C148.195 120.368 148.294 120.478 148.367 120.605C148.44 120.732 148.485 120.874 148.499 121.02C148.513 121.165 148.496 121.313 148.449 121.452C148.401 121.59 148.325 121.718 148.225 121.825Z" fill="#409CD6"></path><path opacity="0.1" d="M140.686 120.062C140.686 120.062 143.407 120.437 143.867 118.009C143.599 118.627 143.154 119.151 142.587 119.516C142.021 119.882 141.36 120.071 140.686 120.062Z" fill="black"></path><path opacity="0.1" d="M148.225 121.824L143.449 127.211C140.7 129.221 139.127 129.334 138.687 128.804C140.062 128.379 143.952 126.68 147.962 120.232L148.062 120.302C148.178 120.387 148.276 120.496 148.348 120.621C148.42 120.745 148.465 120.884 148.48 121.027C148.496 121.171 148.481 121.316 148.437 121.453C148.393 121.59 148.321 121.717 148.225 121.824Z" fill="black"></path><path opacity="0.2" d="M226.408 163.983C226.408 163.983 239.041 175.266 210.252 183.512C210.252 183.512 206.497 171.677 214.553 164.131C216.119 162.659 218.171 161.811 220.32 161.748C222.47 161.686 224.568 162.413 226.216 163.792L226.408 163.983Z" fill="#1089FE"></path><path opacity="0.2" d="M226.287 163.77C226.287 163.77 212.307 170.771 210.252 183.512" stroke="#535461" stroke-miterlimit="10"></path><path opacity="0.2" d="M211.047 183.632C211.047 183.632 218.38 169.32 215.185 157.166C213.805 152.065 214.123 146.654 216.092 141.75C217.041 139.433 218.201 137.208 219.557 135.103" stroke="#535461" stroke-width="2" stroke-miterlimit="10"></path><path opacity="0.2" d="M217.586 127.466C217.231 129.32 219.584 135.344 219.584 135.344C219.584 135.344 223.97 130.594 224.317 128.74C224.486 127.848 224.294 126.926 223.782 126.176C223.271 125.426 222.482 124.91 221.589 124.741C220.696 124.572 219.773 124.764 219.022 125.275C218.272 125.786 217.755 126.574 217.586 127.466Z" fill="#1089FE"></path><path opacity="0.2" d="M210.074 136.703C210.783 138.451 216.033 142.231 216.033 142.231C216.033 142.231 217.132 135.861 216.416 134.112C216.246 133.694 215.995 133.313 215.677 132.992C215.36 132.671 214.982 132.415 214.565 132.239C214.149 132.064 213.702 131.972 213.25 131.969C212.798 131.966 212.35 132.052 211.931 132.222C211.512 132.393 211.131 132.643 210.809 132.961C210.488 133.278 210.232 133.655 210.056 134.071C209.88 134.487 209.788 134.934 209.785 135.385C209.782 135.837 209.869 136.285 210.039 136.703H210.074Z" fill="#1089FE"></path><path opacity="0.2" d="M206.993 154.328C208.495 155.475 214.936 156.098 214.936 156.098C214.936 156.098 212.661 150.046 211.166 148.899C210.445 148.347 209.535 148.104 208.634 148.223C207.734 148.341 206.918 148.813 206.365 149.533C205.813 150.252 205.569 151.162 205.688 152.062C205.807 152.961 206.279 153.776 207 154.328H206.993Z" fill="#1089FE"></path><path opacity="0.2" d="M207.666 168.187C208.949 169.603 215.191 171.266 215.191 171.266C215.191 171.266 213.98 164.896 212.69 163.537C212.384 163.207 212.017 162.941 211.608 162.754C211.2 162.566 210.758 162.461 210.309 162.444C209.859 162.427 209.411 162.498 208.989 162.654C208.567 162.81 208.18 163.048 207.851 163.353C207.521 163.658 207.254 164.025 207.067 164.434C206.879 164.842 206.773 165.283 206.756 165.732C206.739 166.181 206.811 166.629 206.967 167.05C207.123 167.471 207.361 167.858 207.666 168.187Z" fill="#1089FE"></path><path opacity="0.2" d="M223.035 143.923C221.455 144.963 214.992 145.133 214.992 145.133C214.992 145.133 217.678 139.258 219.244 138.211C219.619 137.963 220.04 137.792 220.482 137.706C220.924 137.621 221.378 137.623 221.819 137.713C222.259 137.803 222.678 137.979 223.051 138.231C223.424 138.483 223.743 138.805 223.991 139.18C224.239 139.556 224.411 139.976 224.496 140.417C224.582 140.858 224.579 141.312 224.489 141.753C224.399 142.193 224.223 142.611 223.971 142.984C223.719 143.356 223.396 143.675 223.021 143.923H223.035Z" fill="#1089FE"></path><path opacity="0.2" d="M223.615 160.154C221.794 160.677 215.58 158.901 215.58 158.901C215.58 158.901 219.902 154.095 221.723 153.571C222.596 153.32 223.533 153.426 224.328 153.866C225.122 154.305 225.71 155.042 225.961 155.914C226.211 156.786 226.105 157.721 225.665 158.515C225.226 159.309 224.488 159.896 223.615 160.146V160.154Z" fill="#1089FE"></path><path opacity="0.2" d="M222.035 175.988C220.334 176.809 213.901 176.115 213.901 176.115C213.901 176.115 217.351 170.651 219.052 169.83C219.87 169.434 220.812 169.38 221.671 169.679C222.529 169.978 223.234 170.605 223.629 171.422C224.025 172.24 224.079 173.181 223.78 174.038C223.481 174.896 222.853 175.6 222.035 175.995V175.988Z" fill="#1089FE"></path><path opacity="0.25" d="M217.586 127.466C217.231 129.32 219.584 135.344 219.584 135.344C219.584 135.344 223.97 130.594 224.317 128.74C224.486 127.848 224.294 126.926 223.782 126.176C223.271 125.426 222.482 124.91 221.589 124.741C220.696 124.572 219.773 124.764 219.022 125.275C218.272 125.786 217.755 126.574 217.586 127.466Z" fill="black"></path><path opacity="0.25" d="M210.074 136.703C210.783 138.451 216.033 142.231 216.033 142.231C216.033 142.231 217.132 135.861 216.416 134.112C216.246 133.694 215.995 133.313 215.677 132.992C215.36 132.671 214.982 132.415 214.565 132.239C214.149 132.064 213.702 131.972 213.25 131.969C212.798 131.966 212.35 132.052 211.931 132.222C211.512 132.393 211.131 132.643 210.809 132.961C210.488 133.278 210.232 133.655 210.056 134.071C209.88 134.487 209.788 134.934 209.785 135.385C209.782 135.837 209.869 136.285 210.039 136.703H210.074Z" fill="black"></path><path opacity="0.25" d="M206.993 154.328C208.495 155.475 214.936 156.098 214.936 156.098C214.936 156.098 212.661 150.046 211.166 148.899C210.445 148.347 209.535 148.104 208.634 148.223C207.734 148.341 206.918 148.813 206.365 149.533C205.813 150.252 205.569 151.162 205.688 152.062C205.807 152.961 206.279 153.776 207 154.328H206.993Z" fill="black"></path><path opacity="0.25" d="M207.666 168.187C208.949 169.603 215.191 171.266 215.191 171.266C215.191 171.266 213.98 164.896 212.69 163.537C212.384 163.207 212.017 162.941 211.608 162.754C211.2 162.566 210.758 162.461 210.309 162.444C209.859 162.427 209.411 162.498 208.989 162.654C208.567 162.81 208.18 163.048 207.851 163.353C207.521 163.658 207.254 164.025 207.067 164.434C206.879 164.842 206.773 165.283 206.756 165.732C206.739 166.181 206.811 166.629 206.967 167.05C207.123 167.471 207.361 167.858 207.666 168.187Z" fill="black"></path><path opacity="0.25" d="M223.035 143.923C221.455 144.963 214.992 145.133 214.992 145.133C214.992 145.133 217.678 139.258 219.244 138.211C219.619 137.963 220.04 137.792 220.482 137.706C220.924 137.621 221.378 137.623 221.819 137.713C222.259 137.803 222.678 137.979 223.051 138.231C223.424 138.483 223.743 138.805 223.991 139.18C224.239 139.556 224.411 139.976 224.496 140.417C224.582 140.858 224.579 141.312 224.489 141.753C224.399 142.193 224.223 142.611 223.971 142.984C223.719 143.356 223.396 143.675 223.021 143.923H223.035Z" fill="black"></path><path opacity="0.25" d="M223.615 160.154C221.794 160.677 215.58 158.901 215.58 158.901C215.58 158.901 219.902 154.095 221.723 153.571C222.596 153.32 223.533 153.426 224.328 153.866C225.122 154.305 225.71 155.042 225.961 155.914C226.211 156.786 226.105 157.721 225.665 158.515C225.226 159.309 224.488 159.896 223.615 160.146V160.154Z" fill="black"></path><path opacity="0.25" d="M222.035 175.988C220.334 176.809 213.901 176.115 213.901 176.115C213.901 176.115 217.351 170.651 219.052 169.83C219.87 169.434 220.812 169.38 221.671 169.679C222.529 169.978 223.234 170.605 223.629 171.422C224.025 172.24 224.079 173.181 223.78 174.038C223.481 174.896 222.853 175.6 222.035 175.995V175.988Z" fill="black"></path><path opacity="0.2" d="M197.236 186.343C197.236 186.343 204.569 172.031 201.374 159.877C200 154.788 200.315 149.391 202.273 144.496C203.223 142.18 204.382 139.955 205.738 137.85" stroke="#535461" stroke-width="2" stroke-miterlimit="10"></path><path opacity="0.2" d="M203.748 130.17C203.393 132.024 205.746 138.048 205.746 138.048C205.746 138.048 210.132 133.298 210.479 131.444C210.648 130.552 210.456 129.63 209.944 128.88C209.433 128.13 208.644 127.614 207.751 127.445C206.859 127.276 205.935 127.468 205.184 127.979C204.434 128.49 203.917 129.278 203.748 130.17Z" fill="#1089FE"></path><path opacity="0.2" d="M196.236 139.407C196.945 141.155 202.196 144.935 202.196 144.935C202.196 144.935 203.294 138.565 202.578 136.816C202.234 135.972 201.568 135.298 200.727 134.943C199.886 134.589 198.939 134.583 198.093 134.926C197.247 135.27 196.573 135.935 196.218 136.775C195.863 137.616 195.857 138.562 196.201 139.407H196.236Z" fill="#1089FE"></path><path opacity="0.2" d="M193.155 157.032C194.657 158.178 201.098 158.801 201.098 158.801C201.098 158.801 198.823 152.749 197.328 151.603C196.607 151.051 195.697 150.807 194.796 150.926C193.896 151.045 193.08 151.516 192.528 152.236C191.975 152.956 191.731 153.866 191.85 154.765C191.969 155.664 192.441 156.48 193.162 157.032H193.155Z" fill="#1089FE"></path><path opacity="0.2" d="M193.827 170.891C195.109 172.307 201.352 173.97 201.352 173.97C201.352 173.97 200.14 167.6 198.85 166.241C198.233 165.575 197.376 165.182 196.469 165.148C195.561 165.113 194.677 165.44 194.011 166.057C193.345 166.674 192.951 167.529 192.916 168.436C192.882 169.343 193.209 170.226 193.827 170.891Z" fill="#1089FE"></path><path opacity="0.2" d="M209.197 146.627C207.617 147.667 201.155 147.837 201.155 147.837C201.155 147.837 203.84 141.962 205.406 140.915C205.782 140.667 206.202 140.496 206.644 140.41C207.086 140.325 207.54 140.327 207.981 140.417C208.422 140.507 208.84 140.683 209.213 140.935C209.586 141.187 209.905 141.509 210.153 141.884C210.401 142.26 210.573 142.68 210.658 143.121C210.744 143.562 210.741 144.016 210.651 144.457C210.561 144.897 210.385 145.315 210.133 145.688C209.881 146.06 209.558 146.379 209.183 146.627H209.197Z" fill="#1089FE"></path><path opacity="0.2" d="M209.777 162.85C207.956 163.374 201.742 161.598 201.742 161.598C201.742 161.598 206.064 156.791 207.885 156.268C208.758 156.017 209.695 156.123 210.49 156.562C211.284 157.002 211.872 157.739 212.123 158.611C212.373 159.483 212.267 160.418 211.827 161.212C211.388 162.006 210.65 162.593 209.777 162.843V162.85Z" fill="#1089FE"></path><path opacity="0.2" d="M208.175 178.692C206.475 179.513 200.041 178.819 200.041 178.819C200.041 178.819 203.492 173.355 205.192 172.533C205.598 172.338 206.037 172.224 206.487 172.198C206.936 172.172 207.386 172.235 207.811 172.383C208.236 172.531 208.628 172.761 208.964 173.06C209.3 173.359 209.574 173.721 209.77 174.126C209.966 174.531 210.08 174.97 210.106 175.419C210.132 175.868 210.069 176.318 209.921 176.742C209.773 177.167 209.542 177.558 209.243 177.894C208.943 178.23 208.581 178.503 208.175 178.699V178.692Z" fill="#1089FE"></path><path opacity="0.1" d="M167.957 55.5361L169.205 55.7697C168.973 55.7256 168.769 55.5916 168.637 55.3971C168.505 55.2026 168.455 54.9636 168.5 54.7327C168.544 54.5018 168.678 54.2979 168.873 54.1658C169.067 54.0337 169.306 53.9843 169.538 54.0284L179.635 55.9325C179.866 55.9766 180.07 56.1107 180.202 56.3051C180.334 56.4996 180.384 56.7386 180.34 56.9695C180.296 57.2004 180.161 57.4043 179.967 57.5364C179.772 57.6685 179.533 57.7179 179.302 57.6738L178.055 57.4402C178.169 57.462 178.278 57.5062 178.375 57.5701C178.473 57.634 178.557 57.7165 178.622 57.8128C178.688 57.9091 178.733 58.0173 178.757 58.1313C178.781 58.2453 178.781 58.3628 178.76 58.4772C178.738 58.5915 178.694 58.7004 178.63 58.7977C178.566 58.8949 178.483 58.9787 178.387 59.0441C178.29 59.1095 178.182 59.1553 178.068 59.1788C177.954 59.2024 177.836 59.2033 177.722 59.1814L179.465 59.5141C179.696 59.5582 179.9 59.6923 180.032 59.8868C180.164 60.0812 180.214 60.3202 180.17 60.5511C180.125 60.782 179.991 60.9859 179.797 61.118C179.602 61.2501 179.363 61.2995 179.132 61.2554L169.035 59.3513C168.92 59.3295 168.811 59.2853 168.714 59.2214C168.616 59.1575 168.532 59.075 168.467 58.9787C168.402 58.8824 168.356 58.7742 168.332 58.6602C168.309 58.5462 168.308 58.4287 168.33 58.3144C168.351 58.2 168.396 58.0911 168.46 57.9938C168.524 57.8966 168.606 57.8128 168.703 57.7474C168.799 57.682 168.907 57.6363 169.021 57.6127C169.135 57.5891 169.253 57.5882 169.368 57.6101L167.624 57.2774C167.51 57.2555 167.401 57.2114 167.304 57.1475C167.206 57.0835 167.122 57.0011 167.057 56.9048C166.992 56.8085 166.946 56.7002 166.922 56.5863C166.898 56.4723 166.898 56.3547 166.919 56.2404C166.941 56.1261 166.986 56.0172 167.05 55.9199C167.114 55.8226 167.196 55.7389 167.292 55.6735C167.389 55.6081 167.497 55.5623 167.611 55.5387C167.725 55.5152 167.843 55.5143 167.957 55.5361Z" fill="#252223"></path><path opacity="0.1" d="M186.245 72.8568L187.492 73.0904C187.378 73.0685 187.269 73.0244 187.171 72.9604C187.074 72.8965 186.99 72.814 186.924 72.7178C186.859 72.6215 186.813 72.5132 186.79 72.3992C186.766 72.2853 186.765 72.1677 186.787 72.0534C186.809 71.9391 186.853 71.8302 186.917 71.7329C186.981 71.6356 187.064 71.5519 187.16 71.4865C187.256 71.4211 187.365 71.3753 187.479 71.3517C187.593 71.3282 187.711 71.3273 187.825 71.3491L197.943 73.2532C198.174 73.2973 198.379 73.4313 198.511 73.6258C198.643 73.8203 198.692 74.0593 198.648 74.2902C198.604 74.5211 198.47 74.725 198.275 74.8571C198.081 74.9891 197.841 75.0386 197.61 74.9944L196.363 74.7608C196.478 74.7827 196.587 74.8268 196.684 74.8908C196.781 74.9547 196.865 75.0372 196.931 75.1335C196.996 75.2298 197.042 75.338 197.066 75.452C197.089 75.566 197.09 75.6835 197.068 75.7978C197.046 75.9122 197.002 76.0211 196.938 76.1183C196.874 76.2156 196.792 76.2993 196.695 76.3647C196.599 76.4301 196.49 76.4759 196.376 76.4995C196.262 76.5231 196.145 76.524 196.03 76.5021L197.773 76.8348C197.888 76.8567 197.997 76.9008 198.094 76.9647C198.191 77.0287 198.275 77.1111 198.341 77.2074C198.406 77.3037 198.452 77.412 198.476 77.5259C198.499 77.6399 198.5 77.7574 198.478 77.8718C198.456 77.9861 198.412 78.095 198.348 78.1923C198.284 78.2896 198.202 78.3733 198.105 78.4387C198.009 78.5041 197.9 78.5499 197.786 78.5734C197.672 78.597 197.555 78.5979 197.44 78.5761L187.315 76.672C187.2 76.6502 187.091 76.606 186.994 76.5421C186.897 76.4781 186.813 76.3957 186.747 76.2994C186.682 76.2031 186.636 76.0949 186.612 75.9809C186.589 75.8669 186.588 75.7494 186.61 75.635C186.632 75.5207 186.676 75.4118 186.74 75.3145C186.804 75.2172 186.886 75.1335 186.983 75.0681C187.079 75.0027 187.188 74.9569 187.302 74.9334C187.416 74.9098 187.533 74.9089 187.648 74.9307L185.905 74.5981C185.79 74.5762 185.681 74.5321 185.584 74.4681C185.487 74.4042 185.403 74.3217 185.337 74.2254C185.272 74.1291 185.226 74.0209 185.202 73.9069C185.179 73.7929 185.178 73.6754 185.2 73.5611C185.222 73.4468 185.266 73.3378 185.33 73.2406C185.394 73.1433 185.476 73.0596 185.573 72.9942C185.669 72.9288 185.778 72.883 185.892 72.8594C186.006 72.8358 186.123 72.835 186.238 72.8568H186.245Z" fill="#252223"></path><path opacity="0.1" d="M82.9587 50.73L84.2058 50.9636C84.0914 50.9417 83.9823 50.8976 83.885 50.8336C83.7876 50.7697 83.7038 50.6872 83.6383 50.5909C83.5729 50.4946 83.527 50.3864 83.5034 50.2724C83.4798 50.1584 83.4789 50.0409 83.5008 49.9266C83.5227 49.8122 83.5669 49.7033 83.6309 49.6061C83.6949 49.5088 83.7774 49.4251 83.8738 49.3597C83.9702 49.2943 84.0786 49.2485 84.1927 49.2249C84.3068 49.2013 84.4244 49.2004 84.5389 49.2223L94.6288 51.1476C94.86 51.1917 95.0641 51.3257 95.1963 51.5202C95.3285 51.7147 95.378 51.9537 95.3338 52.1846C95.2897 52.4155 95.1555 52.6194 94.9608 52.7515C94.7662 52.8836 94.5269 52.933 94.2958 52.8889L93.0487 52.6553C93.1632 52.6771 93.2722 52.7213 93.3696 52.7852C93.467 52.8491 93.5508 52.9316 93.6162 53.0279C93.6817 53.1242 93.7275 53.2324 93.7511 53.3464C93.7747 53.4604 93.7756 53.5779 93.7538 53.6922C93.7319 53.8066 93.6877 53.9155 93.6237 54.0127C93.5597 54.11 93.4771 54.1937 93.3807 54.2591C93.2844 54.3245 93.176 54.3703 93.0619 54.3939C92.9478 54.4175 92.8301 54.4184 92.7157 54.3965L94.4942 54.6867C94.7253 54.7309 94.9295 54.8649 95.0617 55.0594C95.1939 55.2538 95.2434 55.4928 95.1992 55.7237C95.1551 55.9546 95.0209 56.1585 94.8262 56.2906C94.6315 56.4227 94.3923 56.4721 94.1612 56.428L84.0641 54.5239C83.9497 54.5021 83.8407 54.4579 83.7433 54.394C83.6459 54.3301 83.5621 54.2476 83.4966 54.1513C83.4311 54.055 83.3853 53.9468 83.3617 53.8328C83.3381 53.7188 83.3372 53.6013 83.3591 53.487C83.3809 53.3726 83.4252 53.2637 83.4892 53.1665C83.5532 53.0692 83.6357 52.9855 83.7321 52.9201C83.8285 52.8547 83.9368 52.8089 84.051 52.7853C84.1651 52.7617 84.2827 52.7608 84.3971 52.7827L82.6541 52.45C82.5396 52.4282 82.4306 52.384 82.3332 52.3201C82.2358 52.2561 82.152 52.1737 82.0866 52.0774C82.0211 51.9811 81.9753 51.8729 81.9517 51.7589C81.9281 51.6449 81.9272 51.5274 81.949 51.413C81.9709 51.2987 82.0151 51.1898 82.0791 51.0925C82.1431 50.9952 82.2257 50.9115 82.3221 50.8461C82.4184 50.7807 82.5268 50.7349 82.6409 50.7114C82.755 50.6878 82.8727 50.6869 82.9871 50.7087L82.9587 50.73Z" fill="#252223"></path><path opacity="0.3" d="M216.082 82.0029C210.979 81.0398 207.624 76.1268 208.588 71.0294C209.553 65.932 214.471 62.5806 219.573 63.5438C224.676 64.5069 228.031 69.4199 227.067 74.5173C226.103 79.6147 221.184 82.9661 216.082 82.0029Z" fill="#1089FE"></path><path opacity="0.05" d="M161.723 121.357C161.723 121.357 156.997 125.526 154.793 129.228C152.589 132.93 153.291 134.183 153.291 134.183" fill="black"></path></g></g><defs><linearGradient id="paint0_linear" x1="132.74" y1="167.902" x2="147.697" y2="88.6622" gradientUnits="userSpaceOnUse"><stop stop-color="#808080" stop-opacity="0.25"></stop><stop offset="0.54" stop-color="#808080" stop-opacity="0.12"></stop><stop offset="1" stop-color="#808080" stop-opacity="0.1"></stop></linearGradient><linearGradient id="paint1_linear" x1="-41807.5" y1="21981.1" x2="-41807.5" y2="16265.1" gradientUnits="userSpaceOnUse"><stop stop-color="#808080" stop-opacity="0.25"></stop><stop offset="0.54" stop-color="#808080" stop-opacity="0.12"></stop><stop offset="1" stop-color="#808080" stop-opacity="0.1"></stop></linearGradient><clipPath id="clip0"><rect width="736" height="401" fill="white" transform="matrix(-1 0 0 1 736 0)"></rect></clipPath></defs></svg>